<?xml version="1.0" encoding="UTF-8"?>
<svg width="14px" height="14px" viewBox="0 0 14 14" version="1.1" xmlns="http://www.w3.org/2000/svg" xmlns:xlink="http://www.w3.org/1999/xlink">
    <!-- Generator: Sketch 60.1 (88133) - https://sketch.com -->
    <title>0_Quarks/Icons/Search/Default</title>
    <desc>Created with Sketch.</desc>
    <g id="0_Quarks/Icons/Search/Default" stroke="none" stroke-width="1" fill="none" fill-rule="evenodd">
        <path d="M8.11258011,-1.15463195e-13 C11.3641123,-1.14865898e-13 14,2.63588767 14,5.88741989 C14,9.13895211 11.3641123,11.7748398 8.11258011,11.7748398 C6.85051907,11.7748398 5.68120818,11.3777292 4.72278297,10.7016435 L1.42325967,14 L4.54747351e-13,12.5767403 L3.29835653,9.27721703 C2.62227083,8.31879182 2.22516022,7.14948093 2.22516022,5.88741989 C2.22516022,2.63588767 4.86104789,-1.16060491e-13 8.11258011,-1.15463195e-13 Z M8.11258011,2.01279313 C5.97268283,2.01279313 4.23795334,3.74752262 4.23795334,5.88741989 C4.23795334,8.02731717 5.97268283,9.76204666 8.11258011,9.76204666 C10.2524774,9.76204666 11.9872069,8.02731717 11.9872069,5.88741989 C11.9872069,3.74752262 10.2524774,2.01279313 8.11258011,2.01279313 Z" id="Combined-Shape" fill="#FFFFFF" fill-rule="nonzero"></path>
    </g>
</svg>