<?xml version="1.0" encoding="UTF-8"?>
<svg width="178px" height="185px" viewBox="0 0 178 185" version="1.1" xmlns="http://www.w3.org/2000/svg" xmlns:xlink="http://www.w3.org/1999/xlink">
    <!-- Generator: Sketch 64 (93537) - https://sketch.com -->
    <title>Combined Shape 14</title>
    <desc>Created with Sketch.</desc>
    <g id="5_Pages/Other-Pages" stroke="none" stroke-width="1" fill="none" fill-rule="evenodd">
        <g id="Landing-Page-(Sign-Up/Sign-In)" transform="translate(-149.000000, -491.000000)" fill="#648FFD" fill-rule="nonzero">
            <g id="Combined-Shape-14" transform="translate(244.000000, 580.500000) rotate(-11.000000) translate(-244.000000, -580.500000) translate(164.000000, 475.000000)">
                <path d="M3.68469772,2.77201609 C4.00425433,0.377960783 7.99871193,0.377960783 7.83893363,2.6124124 C5.76181567,20.0092143 4.80314585,37.4060162 5.60203737,54.9624217 C6.24115058,69.0075462 7.35959871,83.2122743 12.3127261,96.4593804 C16.946297,108.908468 25.5743254,119.442311 38.8359246,122.953592 C54.0148635,127.103288 70.3122506,120.719141 83.4140715,113.377371 C100.670128,103.641546 123.039091,83.0526707 144.76894,89.7560255 C165.699898,96.140173 159.788101,126.464874 156.752313,142.425242 C152.580009,164.413687 143.614347,184.849227 130.788557,203.032708 C133.810268,201.308307 136.83706,199.558014 139.815813,197.807722 C142.052709,196.530892 144.129827,200.042173 141.892931,201.319003 C136.460468,204.351473 130.868228,207.543547 125.435766,210.73562 C124.157539,211.374035 122.240199,210.576017 122.399978,208.97998 C122.879313,202.595832 123.358648,196.052081 123.837982,189.667934 C123.997761,187.114275 127.992218,187.114275 127.83244,189.667934 C127.538732,193.579756 127.245025,197.551502 126.951317,201.509737 C143.598866,178.315832 153.667069,150.726389 155.314308,122.155574 C156.1132,107.950846 153.876304,91.9904771 135.821355,92.6288919 C122.240199,93.1077029 109.93727,101.726302 98.7527887,108.748864 C79.8989488,120.559537 56.890873,134.12585 34.0425755,125.666855 C15.5082922,118.803897 7.19982041,99.3322467 4.00425433,81.2970301 C-0.629316496,55.7604402 0.489131633,28.4682097 3.68469772,2.77201609 Z" id="Combined-Shape"></path>
            </g>
        </g>
    </g>
</svg>