<?xml version="1.0" encoding="UTF-8"?>
<svg width="1343px" height="636px" viewBox="0 0 1343 636" version="1.1" xmlns="http://www.w3.org/2000/svg" xmlns:xlink="http://www.w3.org/1999/xlink">
    <!-- Generator: Sketch 64 (93537) - https://sketch.com -->
    <title>Group 6</title>
    <desc>Created with Sketch.</desc>
    <g id="5_Pages/Other-Pages" stroke="none" stroke-width="1" fill="none" fill-rule="evenodd">
        <g id="Landing-Page-(Sign-Up/Sign-In)" transform="translate(-46.000000, -1684.000000)">
            <g id="Group-6" transform="translate(39.000000, 1675.746507)">
                <g id="Group-2" transform="translate(506.000000, 50.253493)">
                    <rect id="Rectangle" stroke="#648FFD" fill-rule="nonzero" x="107.5" y="31.5" width="66" height="43"></rect>
                    <rect id="Rectangle-Copy-9" stroke="#648FFD" fill-rule="nonzero" x="107.5" y="83.5" width="66" height="43"></rect>
                    <rect id="Rectangle-Copy-2" stroke="#648FFD" fill-rule="nonzero" x="182.5" y="31.5" width="66" height="43"></rect>
                    <rect id="Rectangle-Copy-10" stroke="#648FFD" fill-rule="nonzero" x="182.5" y="83.5" width="66" height="43"></rect>
                    <rect id="Rectangle-Copy-12" stroke="#648FFD" fill-rule="nonzero" x="107.5" y="135.5" width="66" height="43"></rect>
                    <rect id="Rectangle-Copy-11" stroke="#648FFD" fill-rule="nonzero" x="182.5" y="135.5" width="66" height="43"></rect>
                    <g id="Group-12" transform="translate(48.000000, 9.000000)" fill="#648FFD" fill-rule="nonzero">
                        <ellipse id="Oval" cx="2.42553191" cy="2.5" rx="2.42553191" ry="2.5"></ellipse>
                        <ellipse id="Oval-Copy" cx="9.43589082" cy="2.5" rx="2.42553191" ry="2.5"></ellipse>
                        <ellipse id="Oval-Copy-2" cx="16.4462497" cy="2.5" rx="2.42553191" ry="2.5"></ellipse>
                    </g>
                    <g id="Group" transform="translate(272.500000, 63.000000) rotate(28.000000) translate(-272.500000, -63.000000) translate(246.000000, 36.000000)" fill="#648FFD" fill-rule="nonzero">
                        <path d="M22.9409067,5.84502968 C29.1875642,2.46757949 36.9825385,-0.641819104 44.1902202,0.75204923 C50.4902679,1.9850866 52.8394383,7.61417026 52.3055359,13.5649158 C51.0104041,28.4422993 40.2650088,41.1997507 31.043748,52.1801033 C31.532246,52.1341793 31.9781703,52.0588327 32.1636445,52.0388181 C33.102892,51.9374639 34.0421395,51.7347554 34.9292066,51.4813698 C35.7640933,51.2786614 36.0771758,52.4949122 35.2944695,52.6976207 C33.8855983,53.1030376 32.476727,53.3057461 31.0678557,53.4071003 C30.2329691,53.4577774 29.0328195,53.6098088 28.4066545,52.9510062 C27.7804895,52.2922037 28.093572,51.3293385 28.3022936,50.5691817 C28.719737,49.0995453 29.1371803,47.680586 29.5546236,46.2109496 C29.7633453,45.4001157 31.0156753,45.7548556 30.7547732,46.5656894 C30.4416907,47.5285547 30.1807887,48.4914199 29.9198866,49.4542851 C29.8155257,49.9103792 29.0849999,51.4306927 29.2937216,51.8867868 C29.3165271,51.9399432 29.3536854,51.9853556 29.4028267,52.0239378 C35.1696059,45.1703065 40.9206176,38.2047998 45.2046347,30.3449462 C48.6216097,23.965318 53.7470722,13.1896436 49.7961949,6.00586065 C44.9910737,-2.67901129 30.3087591,3.37895494 24.0087114,6.75640513 C15.733225,11.1524514 8.20520186,17.0495867 1.47803226,23.5364355 C0.837349437,24.126149 -0.0702845571,23.2147735 0.570398262,22.62506 C7.29756786,16.1382112 14.7722008,10.2946863 22.9409067,5.84502968 Z" id="Combined-Shape"></path>
                    </g>
                    <path d="M137.460489,111 L140.746447,108.614179 L143.539511,110.627812 L146.34224,110.761418 L144.660603,105.636673 L149,102.687798 L147.173394,102.334697 L143.578169,102.334697 L141.915861,97.334015 L139.441728,97 L137.67311,102.334697 L132,102.334697 L136.590677,105.636673 L134.967027,110.570552 L137.460489,111 Z M143.22058,109.864349 L139.441728,107.144513 L135.653212,109.864349 L137.102899,105.483981 L133.343377,102.764145 L137.992041,102.764145 L139.63502,97.8207226 L140.881751,102.764145 L145.530415,102.764145 L141.770893,105.483981 L143.22058,109.864349 Z" id="✰" fill="#FFFFFF" fill-rule="nonzero"></path>
                    <path d="M217.662675,102.461538 C217.489687,102.378205 217.344977,102.317308 217.228543,102.278846 C217.112109,102.240385 217.007319,102.214744 216.914172,102.201923 C216.907518,102.169872 216.904192,102.125 216.904192,102.067308 C216.804391,100.753205 216.671324,100.096154 216.50499,100.096154 C216.391883,100.096154 216.307053,100.224359 216.250499,100.480769 C216.193945,100.737179 216.139055,101.310897 216.085828,102.201923 C215.992681,102.214744 215.887891,102.240385 215.771457,102.278846 C215.655023,102.317308 215.510313,102.378205 215.337325,102.461538 C215.084498,102.096154 214.894877,101.729167 214.768463,101.360577 C214.642049,100.991987 214.578842,100.615385 214.578842,100.230769 C214.578842,99.6153846 214.755156,99.1201923 215.107784,98.7451923 C215.460413,98.3701923 215.926148,98.1826923 216.50499,98.1826923 C217.077179,98.1826923 217.539587,98.3701923 217.892216,98.7451923 C218.244844,99.1201923 218.421158,99.6153846 218.421158,100.230769 C218.421158,100.608974 218.359614,100.980769 218.236527,101.346154 C218.11344,101.711538 217.922156,102.083333 217.662675,102.461538 Z M220.077844,105.076923 C219.87159,105.076923 219.663673,105.0625 219.454092,105.033654 C219.244511,105.004808 219.02994,104.958333 218.810379,104.894231 C218.830339,104.817308 218.845309,104.741987 218.855289,104.668269 C218.865269,104.594551 218.870259,104.519231 218.870259,104.442308 C218.870259,104.397436 218.868596,104.349359 218.865269,104.298077 C218.861943,104.246795 218.856953,104.192308 218.850299,104.134615 C219.582169,103.858974 220.092814,103.647436 220.382236,103.5 C220.671657,103.352564 220.816367,103.233974 220.816367,103.144231 L220.816367,103.144231 L220.796407,103.115385 C220.769794,103.070513 220.7332,103.038462 220.686627,103.019231 C220.640053,103 220.566866,102.990385 220.467066,102.990385 C220.320692,102.990385 219.80173,103.096154 218.91018,103.307692 L218.91018,103.307692 L218.580838,103.375 C218.527611,103.272436 218.459415,103.169872 218.376248,103.067308 C218.293081,102.964744 218.19827,102.865385 218.091816,102.769231 C218.504325,102.282051 218.95509,101.905449 219.444112,101.639423 C219.933134,101.373397 220.417166,101.240385 220.896208,101.240385 C221.441783,101.240385 221.894212,101.419872 222.253493,101.778846 C222.612774,102.137821 222.792415,102.586538 222.792415,103.125 C222.792415,103.695513 222.541251,104.163462 222.038922,104.528846 C221.536593,104.894231 220.882901,105.076923 220.077844,105.076923 Z M212.922156,105.076923 C212.123752,105.076923 211.471723,104.894231 210.966068,104.528846 C210.460413,104.163462 210.207585,103.695513 210.207585,103.125 C210.207585,102.580128 210.387226,102.129808 210.746507,101.774038 C211.105788,101.418269 211.558217,101.240385 212.103792,101.240385 C212.582834,101.240385 213.066866,101.373397 213.555888,101.639423 C214.04491,101.905449 214.495675,102.282051 214.908184,102.769231 C214.80173,102.878205 214.708583,102.980769 214.628743,103.076923 C214.548902,103.173077 214.479042,103.272436 214.419162,103.375 C214.286094,103.349359 214.103127,103.307692 213.870259,103.25 C213.111776,103.076923 212.666001,102.990385 212.532934,102.990385 C212.439787,102.990385 212.368263,103 212.318363,103.019231 C212.268463,103.038462 212.230206,103.070513 212.203593,103.115385 L212.203593,103.115385 L212.183633,103.144231 C212.183633,103.240385 212.313373,103.354167 212.572854,103.485577 C212.832335,103.616987 213.357951,103.833333 214.149701,104.134615 C214.143047,104.185897 214.138057,104.240385 214.134731,104.298077 C214.131404,104.355769 214.129741,104.403846 214.129741,104.442308 C214.129741,104.519231 214.134731,104.594551 214.144711,104.668269 C214.154691,104.741987 214.169661,104.817308 214.189621,104.894231 C213.97006,104.958333 213.755489,105.004808 213.545908,105.033654 C213.336327,105.0625 213.12841,105.076923 212.922156,105.076923 Z M219.199601,109.884615 C218.554225,109.884615 218.003659,109.592949 217.547904,109.009615 C217.092149,108.426282 216.831005,107.660256 216.764471,106.711538 C216.930805,106.685897 217.073852,106.657051 217.193613,106.625 C217.313373,106.592949 217.429807,106.548077 217.542914,106.490385 C218.055223,107.105769 218.412841,107.512821 218.615768,107.711538 C218.818696,107.910256 218.973387,108.009615 219.07984,108.009615 L219.07984,108.009615 L219.159681,107.971154 L219.219561,107.826923 C219.212908,107.717949 219.136394,107.533654 218.99002,107.274038 C218.843646,107.014423 218.580838,106.596154 218.201597,106.019231 C218.301397,105.916667 218.387891,105.815705 218.461078,105.716346 C218.534265,105.616987 218.597472,105.509615 218.650699,105.394231 C219.409182,105.676282 220.009647,106.060897 220.452096,106.548077 C220.894544,107.035256 221.115768,107.548077 221.115768,108.086538 C221.115768,108.573718 220.926148,108.995192 220.546906,109.350962 C220.167665,109.706731 219.718563,109.884615 219.199601,109.884615 Z M213.800399,109.884615 C213.274784,109.884615 212.824019,109.708333 212.448104,109.355769 C212.072189,109.003205 211.884232,108.580128 211.884232,108.086538 C211.884232,107.541667 212.105456,107.027244 212.547904,106.543269 C212.990353,106.059295 213.590818,105.676282 214.349301,105.394231 C214.409182,105.522436 214.475715,105.637821 214.548902,105.740385 C214.622089,105.842949 214.708583,105.935897 214.808383,106.019231 C214.362608,106.705128 214.07984,107.155449 213.96008,107.370192 C213.840319,107.584936 213.780439,107.740385 213.780439,107.836538 L213.780439,107.836538 L213.840319,107.971154 L213.93014,108.009615 C214.02994,107.996795 214.177977,107.895833 214.374251,107.706731 C214.570526,107.517628 214.93147,107.112179 215.457086,106.490385 C215.596806,106.560897 215.72821,106.612179 215.851297,106.644231 C215.974385,106.676282 216.102462,106.698718 216.235529,106.711538 C216.168995,107.660256 215.907851,108.426282 215.452096,109.009615 C214.996341,109.592949 214.445775,109.884615 213.800399,109.884615 Z M216.504573,107.520154 L216.644711,108.288462 C216.784431,109.070513 217.122089,109.717949 217.657685,110.230769 C218.19328,110.74359 218.793746,111 219.459082,111 C220.164338,111 220.791417,110.746795 221.340319,110.240385 C221.889222,109.733974 222.163673,109.153846 222.163673,108.5 C222.163673,107.980769 221.989022,107.472756 221.639721,106.975962 C221.290419,106.479167 220.823021,106.076923 220.237525,105.769231 L220.237525,105.769231 L219.528942,105.394231 L220.347305,105.509615 C220.360612,105.509615 220.400532,105.512821 220.467066,105.519231 C220.533599,105.525641 220.59348,105.528846 220.646707,105.528846 C221.664671,105.528846 222.478044,105.301282 223.086826,104.846154 C223.695609,104.391026 224,103.791667 224,103.048077 C224,102.298077 223.757152,101.666667 223.271457,101.153846 C222.785762,100.641026 222.183633,100.384615 221.46507,100.384615 C221.032601,100.384615 220.585163,100.479167 220.122754,100.668269 C219.660346,100.857372 219.269461,101.105769 218.9501,101.413462 L218.9501,101.413462 L218.381238,101.961538 L218.730539,101.259615 C218.856953,100.990385 218.953426,100.711538 219.01996,100.423077 C219.086494,100.134615 219.11976,99.8461538 219.11976,99.5576923 C219.11976,98.7948718 218.878576,98.1778846 218.396208,97.7067308 C217.913839,97.2355769 217.283433,97 216.50499,97 C215.719894,97 215.086161,97.2355769 214.603792,97.7067308 C214.121424,98.1778846 213.88024,98.7948718 213.88024,99.5576923 C213.88024,99.8525641 213.913506,100.142628 213.98004,100.427885 C214.046574,100.713141 214.143047,100.990385 214.269461,101.259615 L214.269461,101.259615 L214.618762,101.961538 L214.0499,101.413462 C213.737192,101.112179 213.347971,100.865385 212.882236,100.673077 C212.4165,100.480769 211.967399,100.384615 211.53493,100.384615 C210.809714,100.384615 210.205921,100.639423 209.723553,101.149038 C209.241184,101.658654 209,102.291667 209,103.048077 C209,103.772436 209.294411,104.366987 209.883234,104.831731 C210.472056,105.296474 211.232202,105.528846 212.163673,105.528846 C212.323353,105.528846 212.434797,105.527244 212.498004,105.524038 C212.561211,105.520833 212.616101,105.516026 212.662675,105.509615 L212.662675,105.509615 L213.471058,105.394231 L212.762475,105.769231 C212.170326,106.076923 211.701264,106.477564 211.355289,106.971154 C211.009315,107.464744 210.836327,107.974359 210.836327,108.5 C210.836327,109.160256 211.110778,109.741987 211.659681,110.245192 C212.208583,110.748397 212.835662,111 213.540918,111 C214.212908,111 214.815037,110.745192 215.347305,110.235577 C215.879574,109.725962 216.215569,109.076923 216.355289,108.288462 L216.355289,108.288462 L216.504573,107.520154 Z" id="❀" fill="#FFFFFF" fill-rule="nonzero"></path>
                    <polygon id="❄" fill="#FFFFFF" fill-rule="nonzero" points="140.904013 59 140.883556 56.6157635 142.755311 57.8275862 143.000787 57.2068966 140.8631 55.8768473 140.822187 52.546798 143.798584 54.2413793 143.921322 56.6748768 144.616837 56.8029557 144.473643 54.6256158 146.580645 55.8275862 147 55.1674877 144.841857 53.9950739 146.877262 53.0295567 146.437451 52.5270936 144.15657 53.6305419 141.159717 51.9950739 144.15657 50.3596059 146.437451 51.4729064 146.877262 50.9704433 144.841857 50.0049261 147 48.8325123 146.580645 48.1625616 144.473643 49.3743842 144.616837 47.1970443 143.921322 47.3152709 143.798584 49.7586207 140.822187 51.453202 140.8631 48.1231527 143.000787 46.7931034 142.755311 46.1625616 140.883556 47.3743842 140.904013 45 140.095987 45 140.116444 47.3743842 138.244689 46.1625616 137.999213 46.7931034 140.1369 48.1231527 140.177813 51.453202 137.201416 49.7586207 137.078678 47.3152709 136.383163 47.1970443 136.526357 49.3743842 134.419355 48.1625616 134 48.8325123 136.158143 50.0049261 134.122738 50.9704433 134.562549 51.4729064 136.84343 50.3596059 139.840283 51.9950739 136.84343 53.6305419 134.562549 52.5270936 134.122738 53.0295567 136.158143 53.9950739 134 55.1674877 134.419355 55.8275862 136.526357 54.6256158 136.383163 56.8029557 137.078678 56.6748768 137.201416 54.2413793 140.177813 52.546798 140.1369 55.8768473 137.999213 57.2068966 138.244689 57.8275862 140.116444 56.6157635 140.095987 59"></polygon>
                    <path d="M136.945885,164 C138.003382,163.81768 138.83991,163.734807 139.881623,163.734807 C140.481398,163.734807 140.986471,163.751381 141.396843,163.801105 C142.691094,163.950276 142.691094,163.950276 143.069899,163.983425 C142.296505,163.071823 142.028185,162.707182 141.680947,162.110497 C141.333709,161.513812 141.223224,161.18232 141.096956,160.38674 C142.059752,161.281768 142.659526,161.546961 143.65389,161.546961 C145.532131,161.546961 147,159.972376 147,157.933702 C147,157.121547 146.747463,156.342541 146.273957,155.696133 C145.658399,154.900552 144.67982,154.353591 143.795941,154.353591 C143.543405,154.353591 143.243517,154.370166 142.864713,154.41989 C143.243517,153.690608 143.354002,153.309392 143.354002,152.629834 C143.354002,150.574586 141.886133,149 139.960541,149 C138.050733,149 136.56708,150.59116 136.56708,152.662983 C136.56708,153.276243 136.677565,153.657459 137.040586,154.403315 C136.709132,154.353591 136.425028,154.337017 136.204059,154.337017 C135.509583,154.337017 134.673055,154.685083 134.073281,155.232044 C133.378805,155.878453 133,156.80663 133,157.933702 C133,160.005525 134.436302,161.546961 136.361894,161.546961 C137.32469,161.546961 137.892897,161.281768 138.824126,160.370166 C138.682074,161.149171 138.540023,161.546961 138.113867,162.309392 C137.782413,162.906077 137.608794,163.154696 136.945885,164 Z M138.287486,163.20442 C138.824126,162.276243 139.029312,161.845304 139.250282,161.049724 C139.471251,160.220994 139.550169,159.574586 139.550169,158.298343 C139.550169,158.099448 139.471251,158.016575 139.266065,158.016575 C139.139797,158.016575 139.092446,158.066298 139.060879,158.21547 C138.981962,158.79558 138.966178,158.845304 138.871477,159.077348 C138.492672,160.138122 137.435175,160.883978 136.34611,160.883978 C134.830891,160.883978 133.631342,159.558011 133.631342,157.883978 C133.631342,157.121547 133.883878,156.40884 134.325817,155.911602 C134.862458,155.314917 135.635851,154.950276 136.425028,154.950276 C136.930101,154.950276 137.419391,155.099448 137.766629,155.364641 C138.192785,155.712707 138.366404,155.828729 138.476888,155.828729 C138.61894,155.828729 138.713641,155.729282 138.713641,155.596685 C138.713641,155.480663 138.634724,155.331492 138.492672,155.198895 C138.255919,154.983425 138.255919,154.983425 138.145434,154.850829 C137.482525,154.005525 137.166855,153.292818 137.166855,152.563536 C137.166855,151.983425 137.372041,151.370166 137.735062,150.839779 C138.287486,150.044199 139.045096,149.629834 139.944758,149.629834 C141.507328,149.629834 142.722661,150.939227 142.722661,152.596685 C142.722661,153.375691 142.438557,154.088398 141.870349,154.751381 C141.728298,154.933702 141.554679,155.116022 141.459977,155.198895 C141.239008,155.39779 141.191657,155.464088 141.191657,155.563536 C141.191657,155.696133 141.317926,155.828729 141.42841,155.828729 C141.523112,155.828729 141.617813,155.779006 141.822999,155.61326 C142.470124,155.116022 142.880496,154.966851 143.574972,154.966851 C144.395716,154.966851 145.137542,155.314917 145.626832,155.928177 C146.084555,156.491713 146.337091,157.20442 146.337091,157.917127 C146.337091,159.59116 145.121759,160.900552 143.574972,160.900552 C142.596392,160.900552 141.775648,160.403315 141.223224,159.475138 C141.018038,159.143646 140.923337,158.861878 140.89177,158.513812 C140.844419,158.116022 140.797069,158.033149 140.639233,158.033149 C140.481398,158.033149 140.370913,158.165746 140.370913,158.331492 L140.37124,158.367544 C140.372631,158.423648 140.379932,158.533544 140.418264,159.110497 C140.512965,160.403315 140.512965,160.436464 140.639233,160.950276 C140.828636,161.779006 141.144307,162.475138 141.617813,163.187845 C141.365276,163.138122 140.528749,163.104972 139.992108,163.104972 C139.313416,163.104972 138.587373,163.138122 138.287486,163.20442 Z" id="♧" fill="#FFFFFF" fill-rule="nonzero"></path>
                    <path d="M216.078431,157.054533 C216.392157,156.23381 217.202614,155.495796 218.509804,154.840491 C218.856209,154.668712 219.117647,154.535106 219.294118,154.439673 C219.882353,154.096115 220.313725,153.714383 220.588235,153.294479 C220.862745,152.874574 221,152.375142 221,151.796183 C221,150.988185 220.75817,150.320155 220.27451,149.792093 C219.79085,149.264031 219.183007,149 218.45098,149 C218.169935,149 217.901961,149.049307 217.647059,149.147921 C217.392157,149.246535 217.166667,149.384913 216.970588,149.563054 C216.905229,149.626676 216.820261,149.709384 216.715686,149.811179 C216.395425,150.116564 216.156863,150.269257 216,150.269257 C215.836601,150.269257 215.620915,150.138832 215.352941,149.877982 C215.189542,149.712565 215.058824,149.588503 214.960784,149.505794 C214.712418,149.321291 214.478758,149.190866 214.259804,149.114519 C214.04085,149.038173 213.803922,149 213.54902,149 C212.816993,149 212.20915,149.265621 211.72549,149.796864 C211.24183,150.328107 211,151.000909 211,151.815269 C211,152.394229 211.137255,152.890479 211.411765,153.304022 C211.686275,153.717564 212.124183,154.096115 212.72549,154.439673 C212.901961,154.535106 213.166667,154.671893 213.519608,154.850034 C214.800654,155.492615 215.601307,156.227448 215.921569,157.054533 L215.921569,157.054533 L216.078431,157.054533 Z M216,163 C216.908497,163 217.668301,162.743922 218.279412,162.231766 C218.890523,161.719609 219.196078,161.094524 219.196078,160.35651 C219.196078,159.612134 218.890523,158.983867 218.279412,158.471711 C217.668301,157.959555 216.908497,157.703476 216,157.703476 C215.091503,157.703476 214.331699,157.959555 213.720588,158.471711 C213.109477,158.983867 212.803922,159.612134 212.803922,160.35651 C212.803922,161.107248 213.107843,161.735515 213.715686,162.241309 C214.323529,162.747103 215.084967,163 216,163 Z" id="❣" fill="#FFFFFF" fill-rule="nonzero"></path>
                    <path d="M218.584178,49.5157131 L221.150101,47.5721193 C221.224476,48.0620467 221.388438,48.4601128 221.641988,48.7663175 C221.895538,49.0725222 222.245436,49.2933118 222.691684,49.4286865 C222.678161,49.2997583 222.668019,49.1917808 222.661258,49.1047542 C222.654496,49.0177276 222.651116,48.9355359 222.651116,48.8581789 C222.651116,48.2393231 222.760987,47.614021 222.98073,46.9822724 C223.200473,46.3505238 223.54023,45.6897663 224,45 C223.553753,45.1547139 223.102434,45.272361 222.646045,45.3529412 C222.189655,45.4335214 221.728195,45.4738114 221.261663,45.4738114 C220.869506,45.4738114 220.501014,45.4464142 220.156187,45.3916197 C219.811359,45.3368251 219.480054,45.2514102 219.162272,45.1353747 L219.162272,45.1353747 L219.162272,45.1933924 C219.162272,45.5672844 219.297498,45.9153908 219.567951,46.2377115 C219.838404,46.5600322 220.206897,46.804996 220.673428,46.9726027 L220.673428,46.9726027 L218.097363,48.9161966 L218.584178,49.5157131 Z M212.488844,53.0741338 L217.955375,49.0128928 L214.40568,48.6841257 L209,52.6776793 L212.488844,53.0741338 Z M212.539554,57 L217.935091,52.9774376 L218.432049,49.6124093 L212.975659,53.6736503 L212.539554,57 Z" id="➶" fill="#FFFFFF" fill-rule="nonzero"></path>
                    <g id="Group-Copy-4" transform="translate(85.000000, 124.000000) scale(-1, 1) rotate(61.000000) translate(-85.000000, -124.000000) translate(65.000000, 104.000000)" fill="#648FFD" fill-rule="nonzero">
                        <path d="M17.1818604,4.12906679 C21.9123389,1.58488372 27.8153292,-0.757380055 33.2735736,0.292600259 C38.0444835,1.221429 39.8234668,5.46173411 39.4191524,9.94434238 C38.4465464,21.0578606 30.4362119,30.6009707 23.4928108,38.8255209 C23.7241224,38.7953359 23.916529,38.7644719 24.0124011,38.7541231 C24.68948,38.6810362 25.3665589,38.5348624 26.0060223,38.3521451 C26.6078703,38.2059713 26.8335632,39.0830142 26.2693308,39.229188 C25.2537124,39.5215356 24.2380941,39.6677095 23.2224757,39.7407964 C23.0610184,39.7505999 22.8806113,39.7656633 22.6943265,39.7732869 L22.6805363,39.7880136 C22.4375496,40.052778 22.1221508,39.9559077 21.9519327,39.7344974 C21.7019705,39.6864693 21.4737864,39.5905084 21.3040855,39.4119053 C20.8526995,38.9368404 21.0783925,38.2425147 21.2288545,37.6943629 C21.5297784,36.6346027 21.8307024,35.6113859 22.1316264,34.5516258 C22.2820883,33.9669305 23.1848602,34.2227347 22.9967827,34.8074299 C22.7710898,35.5017556 22.5830123,36.1960812 22.3949348,36.8904069 C22.3197038,37.219298 21.7930869,38.3156016 21.9435489,38.6444927 C21.9771342,38.7228001 22.0539005,38.7778018 22.1592828,38.815116 C26.4981085,33.6850492 30.8183191,28.4673224 34.0417709,22.58449 C36.6293831,17.7788109 40.5108013,9.66165537 37.5188748,4.25021837 C33.8800452,-2.29196667 22.7613991,2.27140931 17.9904892,4.81559238 C11.723616,8.12706876 6.02278297,12.5692932 0.928421526,17.45574 C0.443244246,17.8999624 -0.244090235,17.2134369 0.241087046,16.7692144 C5.33544849,11.8827676 10.9958501,7.48092702 17.1818604,4.12906679 Z" id="Combined-Shape"></path>
                    </g>
                    <text id="Собери-портфолио-из" font-family="PTRootUIWeb-Bold, PT Root UI Web" font-size="24" font-weight="bold" line-spacing="24" letter-spacing="0.0269020036" fill="#FFFFFF">
                        <tspan x="0.5" y="285">Собери портфолио из проектов</tspan>
                    </text>
                    <text id="Легко-добавляй,-удал" font-family="PTRootUIWeb-Medium, PT Root UI Web" font-size="14" font-weight="400" line-spacing="24" letter-spacing="0.0156928355" fill="#FFFFFF">
                        <tspan x="12.4240648" y="299">Легко добавляй, удаляй и меняй местами проекты</tspan>
                    </text>
                    <path d="M40.7064243,0.513110391 C128.818455,4.29704466 212.535545,5.00500202 313.890138,2.79373867 L42.9081915,1.56104937 C100.593155,1.16297257 161.263853,0.637805078 315.119341,3.68867088 L313.511985,2.52077798 C314.511896,69.1101166 313.16354,128.92773 316.298184,203.663395 L315.806448,3.38937296 C312.700414,83.1515158 313.557269,162.83479 314.121403,201.83301 L316.013922,203.901271 C230.696225,199.872656 145.742945,198.791914 44.2320244,202.467808 L315.406221,202.14078 C235.588886,200.580405 156.201053,200.01307 43.3541641,201.642564 L43.8321417,202.645478 C45.3289755,161.449911 45.1932277,115.26366 42.1608801,3.61077734 L43.3991622,202.437157 C43.097335,134.775695 44.0520244,68.6637882 44.7118417,4.18159173 L43.9156835,4.079933 C43.7128393,3.38741298 42.88666,3.24972752 42.1434611,2.16484691 L44.0550985,3.92659889 C43.5776273,3.53412486 42.8882892,3.08003215 42.1972975,2.35383342" id="Path" stroke="#648FFD"></path>
                </g>
                <g id="Group-2-Copy-2" transform="translate(0.000000, 50.253493)">
                    <g id="Group">
                        <g id="Group-12" transform="translate(74.000000, 9.000000)" fill="#648FFD" fill-rule="nonzero">
                            <ellipse id="Oval" cx="2.42553191" cy="2.5" rx="2.42553191" ry="2.5"></ellipse>
                            <ellipse id="Oval-Copy" cx="9.43589082" cy="2.5" rx="2.42553191" ry="2.5"></ellipse>
                            <ellipse id="Oval-Copy-2" cx="16.4462497" cy="2.5" rx="2.42553191" ry="2.5"></ellipse>
                        </g>
                        <text id="Создай-проект-в-удоб" font-family="PTRootUIWeb-Bold, PT Root UI Web" font-size="24" font-weight="bold" line-spacing="24" letter-spacing="0.0269020036" fill="#FFFFFF">
                            <tspan x="0" y="285"> Создай проект в удобном редакторе</tspan>
                        </text>
                        <text id="Добавляй-картинки,-в" font-family="PTRootUIWeb-Medium, PT Root UI Web" font-size="14" font-weight="400" line-spacing="24" letter-spacing="0.0156928355" fill="#FFFFFF">
                            <tspan x="62.2632969" y="299">Добавляй картинки, видео или вставки кода</tspan>
                        </text>
                        <path d="M67.7064243,0.513110391 C155.818455,4.29704466 239.535545,5.00500202 340.890138,2.79373867 L69.9081915,1.56104937 C127.593155,1.16297257 188.263853,0.637805078 342.119341,3.68867088 L340.511985,2.52077798 C341.511896,69.1101166 340.16354,128.92773 343.298184,203.663395 L342.806448,3.38937296 C339.700414,83.1515158 340.557269,162.83479 341.121403,201.83301 L343.013922,203.901271 C257.696225,199.872656 172.742945,198.791914 71.2320244,202.467808 L342.406221,202.14078 C262.588886,200.580405 183.201053,200.01307 70.3541641,201.642564 L70.8321417,202.645478 C72.3289755,161.449911 72.1932277,115.26366 69.1608801,3.61077734 L70.3991622,202.437157 C70.097335,134.775695 71.0520244,68.6637882 71.7118417,4.18159173 L70.9156835,4.079933 C70.7128393,3.38741298 69.88666,3.24972752 69.1434611,2.16484691 L71.0550985,3.92659889 C70.5776273,3.53412486 69.8882892,3.08003215 69.1972975,2.35383342" id="Path" stroke="#648FFD"></path>
                        <g id="Group-Copy" transform="translate(138.000000, 87.000000)" fill="#648FFD" fill-rule="nonzero">
                            <path d="M132.173133,0.00139076917 C132.60438,-0.02640071 132.973357,0.357412464 132.997268,0.858661488 C133.021178,1.35991051 132.690967,1.78878258 132.259721,1.81657406 L126.29104,2.1956195 C109.684371,3.23188424 102.527817,3.49877838 95.6469615,3.42180751 L92.9850618,3.37863621 L86.7782637,3.23373767 C68.0222009,2.8210416 46.9715801,2.91829558 0.796645961,3.99978085 C0.364824743,4.00989474 0.00771037302,3.61120957 -0.00164254165,3.10928121 C-0.00969299198,2.6073756 0.333313163,2.19229256 0.765134382,2.18217867 L10.4782622,1.96102566 C50.0201005,1.08875991 69.3994917,1.03304085 86.8083551,1.41610291 L93.3741611,1.56833634 L95.4316776,1.60121415 C103.113713,1.6957835 111.029979,1.36395136 132.173133,0.00139076917 Z" id="Path-Copy"></path>
                            <path d="M132.173133,9.00139077 C132.60438,8.97359929 132.973357,9.35741246 132.997268,9.85866149 C133.021178,10.3599105 132.690967,10.7887826 132.259721,10.8165741 L126.29104,11.1956195 C109.684371,12.2318842 102.527817,12.4987784 95.6469615,12.4218075 L92.9850618,12.3786362 L86.7782637,12.2337377 C68.0222009,11.8210416 46.9715801,11.9182956 0.796645961,12.9997809 C0.364824743,13.0098947 0.00771037302,12.6112096 -0.00164254165,12.1092812 C-0.00969299198,11.6073756 0.333313163,11.1922926 0.765134382,11.1821787 L10.4782622,10.9610257 C50.0201005,10.0887599 69.3994917,10.0330409 86.8083551,10.4161029 L93.3741611,10.5683363 L95.4316776,10.6012141 C103.113713,10.6957835 111.029979,10.3639514 132.173133,9.00139077 Z" id="Path-Copy-2"></path>
                            <path d="M132.173133,19.0013908 C132.60438,18.9735993 132.973357,19.3574125 132.997268,19.8586615 C133.021178,20.3599105 132.690967,20.7887826 132.259721,20.8165741 L126.29104,21.1956195 C109.684371,22.2318842 102.527817,22.4987784 95.6469615,22.4218075 L92.9850618,22.3786362 L86.7782637,22.2337377 C68.0222009,21.8210416 46.9715801,21.9182956 0.796645961,22.9997809 C0.364824743,23.0098947 0.00771037302,22.6112096 -0.00164254165,22.1092812 C-0.00969299198,21.6073756 0.333313163,21.1922926 0.765134382,21.1821787 L10.4782622,20.9610257 C50.0201005,20.0887599 69.3994917,20.0330409 86.8083551,20.4161029 L93.3741611,20.5683363 L95.4316776,20.6012141 C103.113713,20.6957835 111.029979,20.3639514 132.173133,19.0013908 Z" id="Path-Copy-3"></path>
                            <path d="M132.173133,29.0013908 C132.60438,28.9735993 132.973357,29.3574125 132.997268,29.8586615 C133.021178,30.3599105 132.690967,30.7887826 132.259721,30.8165741 L126.29104,31.1956195 C109.684371,32.2318842 102.527817,32.4987784 95.6469615,32.4218075 L92.9850618,32.3786362 L86.7782637,32.2337377 C68.0222009,31.8210416 46.9715801,31.9182956 0.796645961,32.9997809 C0.364824743,33.0098947 0.00771037302,32.6112096 -0.00164254165,32.1092812 C-0.00969299198,31.6073756 0.333313163,31.1922926 0.765134382,31.1821787 L10.4782622,30.9610257 C50.0201005,30.0887599 69.3994917,30.0330409 86.8083551,30.4161029 L93.3741611,30.5683363 L95.4316776,30.6012141 C103.113713,30.6957835 111.029979,30.3639514 132.173133,29.0013908 Z" id="Path-Copy-4"></path>
                            <path d="M132.173133,38.0013908 C132.60438,37.9735993 132.973357,38.3574125 132.997268,38.8586615 C133.021178,39.3599105 132.690967,39.7887826 132.259721,39.8165741 L126.29104,40.1956195 C109.684371,41.2318842 102.527817,41.4987784 95.6469615,41.4218075 L92.9850618,41.3786362 L86.7782637,41.2337377 C68.0222009,40.8210416 46.9715801,40.9182956 0.796645961,41.9997809 C0.364824743,42.0098947 0.00771037302,41.6112096 -0.00164254165,41.1092812 C-0.00969299198,40.6073756 0.333313163,40.1922926 0.765134382,40.1821787 L10.4782622,39.9610257 C50.0201005,39.0887599 69.3994917,39.0330409 86.8083551,39.4161029 L93.3741611,39.5683363 L95.4316776,39.6012141 C103.113713,39.6957835 111.029979,39.3639514 132.173133,38.0013908 Z" id="Path-Copy-5"></path>
                        </g>
                        <g id="Group-Copy-2" transform="translate(138.000000, 144.000000)" fill="#648FFD" fill-rule="nonzero">
                            <path d="M132.173133,0.00139076917 C132.60438,-0.02640071 132.973357,0.357412464 132.997268,0.858661488 C133.021178,1.35991051 132.690967,1.78878258 132.259721,1.81657406 L126.29104,2.1956195 C109.684371,3.23188424 102.527817,3.49877838 95.6469615,3.42180751 L92.9850618,3.37863621 L86.7782637,3.23373767 C68.0222009,2.8210416 46.9715801,2.91829558 0.796645961,3.99978085 C0.364824743,4.00989474 0.00771037302,3.61120957 -0.00164254165,3.10928121 C-0.00969299198,2.6073756 0.333313163,2.19229256 0.765134382,2.18217867 L10.4782622,1.96102566 C50.0201005,1.08875991 69.3994917,1.03304085 86.8083551,1.41610291 L93.3741611,1.56833634 L95.4316776,1.60121415 C103.113713,1.6957835 111.029979,1.36395136 132.173133,0.00139076917 Z" id="Path-Copy"></path>
                            <path d="M132.173133,9.00139077 C132.60438,8.97359929 132.973357,9.35741246 132.997268,9.85866149 C133.021178,10.3599105 132.690967,10.7887826 132.259721,10.8165741 L126.29104,11.1956195 C109.684371,12.2318842 102.527817,12.4987784 95.6469615,12.4218075 L92.9850618,12.3786362 L86.7782637,12.2337377 C68.0222009,11.8210416 46.9715801,11.9182956 0.796645961,12.9997809 C0.364824743,13.0098947 0.00771037302,12.6112096 -0.00164254165,12.1092812 C-0.00969299198,11.6073756 0.333313163,11.1922926 0.765134382,11.1821787 L10.4782622,10.9610257 C50.0201005,10.0887599 69.3994917,10.0330409 86.8083551,10.4161029 L93.3741611,10.5683363 L95.4316776,10.6012141 C103.113713,10.6957835 111.029979,10.3639514 132.173133,9.00139077 Z" id="Path-Copy-2"></path>
                            <path d="M132.173133,19.0013908 C132.60438,18.9735993 132.973357,19.3574125 132.997268,19.8586615 C133.021178,20.3599105 132.690967,20.7887826 132.259721,20.8165741 L126.29104,21.1956195 C109.684371,22.2318842 102.527817,22.4987784 95.6469615,22.4218075 L92.9850618,22.3786362 L86.7782637,22.2337377 C68.0222009,21.8210416 46.9715801,21.9182956 0.796645961,22.9997809 C0.364824743,23.0098947 0.00771037302,22.6112096 -0.00164254165,22.1092812 C-0.00969299198,21.6073756 0.333313163,21.1922926 0.765134382,21.1821787 L10.4782622,20.9610257 C50.0201005,20.0887599 69.3994917,20.0330409 86.8083551,20.4161029 L93.3741611,20.5683363 L95.4316776,20.6012141 C103.113713,20.6957835 111.029979,20.3639514 132.173133,19.0013908 Z" id="Path-Copy-3"></path>
                            <path d="M132.173133,29.0013908 C132.60438,28.9735993 132.973357,29.3574125 132.997268,29.8586615 C133.021178,30.3599105 132.690967,30.7887826 132.259721,30.8165741 L126.29104,31.1956195 C109.684371,32.2318842 102.527817,32.4987784 95.6469615,32.4218075 L92.9850618,32.3786362 L86.7782637,32.2337377 C68.0222009,31.8210416 46.9715801,31.9182956 0.796645961,32.9997809 C0.364824743,33.0098947 0.00771037302,32.6112096 -0.00164254165,32.1092812 C-0.00969299198,31.6073756 0.333313163,31.1922926 0.765134382,31.1821787 L10.4782622,30.9610257 C50.0201005,30.0887599 69.3994917,30.0330409 86.8083551,30.4161029 L93.3741611,30.5683363 L95.4316776,30.6012141 C103.113713,30.6957835 111.029979,30.3639514 132.173133,29.0013908 Z" id="Path-Copy-4"></path>
                            <path d="M132.173133,38.0013908 C132.60438,37.9735993 132.973357,38.3574125 132.997268,38.8586615 C133.021178,39.3599105 132.690967,39.7887826 132.259721,39.8165741 L126.29104,40.1956195 C109.684371,41.2318842 102.527817,41.4987784 95.6469615,41.4218075 L92.9850618,41.3786362 L86.7782637,41.2337377 C68.0222009,40.8210416 46.9715801,40.9182956 0.796645961,41.9997809 C0.364824743,42.0098947 0.00771037302,41.6112096 -0.00164254165,41.1092812 C-0.00969299198,40.6073756 0.333313163,40.1922926 0.765134382,40.1821787 L10.4782622,39.9610257 C50.0201005,39.0887599 69.3994917,39.0330409 86.8083551,39.4161029 L93.3741611,39.5683363 L95.4316776,39.6012141 C103.113713,39.6957835 111.029979,39.3639514 132.173133,38.0013908 Z" id="Path-Copy-5"></path>
                        </g>
                        <g id="✰-copy-5" transform="translate(151.000000, 56.000000)" fill="#FFFFFF" fill-rule="nonzero">
                            <path d="M7.70892553,20 L12.347925,16.5916837 L16.2910745,19.4683027 L20.2478681,19.6591684 L17.8737919,12.338105 L24,8.12542604 L21.4212621,7.62099523 L16.3456509,7.62099523 L13.998863,0.477164281 L10.5059693,0 L8.00909608,7.62099523 L0,7.62099523 L6.48095509,12.338105 L4.1887436,19.3865031 L7.70892553,20 Z M16.1831879,18.5 L10.7569389,14.5479398 L5.31681205,18.5 L7.39849326,12.135103 L2,8.18304279 L8.67525773,8.18304279 L11.0344964,1 L12.8247423,8.18304279 L19.5,8.18304279 L14.1015067,12.135103 L16.1831879,18.5 Z" id="✰-copy-4"></path>
                        </g>
                        <g id="✰-copy-6" transform="translate(247.000000, 60.000000)" fill="#FFFFFF" fill-rule="nonzero">
                            <path d="M4.49687322,12 L7.20295623,9.95501022 L9.50312678,11.6809816 L11.8112564,11.795501 L10.4263786,7.40286299 L14,4.87525562 L12.4957362,4.57259714 L9.53496305,4.57259714 L8.16600341,0.286298569 L6.12848209,0 L4.67197271,4.57259714 L0,4.57259714 L3.78055713,7.40286299 L2.44343377,11.6319018 L4.49687322,12 Z M9.44019297,11.1 L6.27488105,8.72876387 L3.1014737,11.1 L4.31578773,7.28106181 L1.16666667,4.90982567 L5.06056701,4.90982567 L6.43678958,0.6 L7.48109966,4.90982567 L11.375,4.90982567 L8.22587893,7.28106181 L9.44019297,11.1 Z" id="✰-copy-4"></path>
                        </g>
                        <g id="✰-copy-7" transform="translate(196.000000, 60.000000)" fill="#FFFFFF" fill-rule="nonzero">
                            <path d="M5.78169414,15 L9.26094372,12.4437628 L12.2183059,14.601227 L15.1859011,14.7443763 L13.4053439,9.25357873 L18,6.09406953 L16.0659466,5.71574642 L12.2592382,5.71574642 L10.4991472,0.357873211 L7.87947698,0 L6.00682206,5.71574642 L0,5.71574642 L4.86071632,9.25357873 L3.1415577,14.5398773 L5.78169414,15 Z M12.137391,13.875 L8.0677042,10.9109548 L3.98760904,13.875 L5.54886994,9.10132726 L1.5,6.13728209 L6.5064433,6.13728209 L8.27587232,0.75 L9.6185567,6.13728209 L14.625,6.13728209 L10.5761301,9.10132726 L12.137391,13.875 Z" id="✰-copy-4"></path>
                        </g>
                        <g id="✰-copy-8" transform="translate(239.000000, 22.000000)" fill="#FFFFFF" fill-rule="nonzero">
                            <path d="M7.70892553,20 L12.347925,16.5916837 L16.2910745,19.4683027 L20.2478681,19.6591684 L17.8737919,12.338105 L24,8.12542604 L21.4212621,7.62099523 L16.3456509,7.62099523 L13.998863,0.477164281 L10.5059693,0 L8.00909608,7.62099523 L0,7.62099523 L6.48095509,12.338105 L4.1887436,19.3865031 L7.70892553,20 Z M16.1831879,18.5 L10.7569389,14.5479398 L5.31681205,18.5 L7.39849326,12.135103 L2,8.18304279 L8.67525773,8.18304279 L11.0344964,1 L12.8247423,8.18304279 L19.5,8.18304279 L14.1015067,12.135103 L16.1831879,18.5 Z" id="✰-copy-4"></path>
                        </g>
                        <g id="✰-copy-9" transform="translate(184.000000, 48.000000)" fill="#FFFFFF" fill-rule="nonzero">
                            <path d="M3.85446276,10 L6.17396248,8.29584185 L8.14553724,9.73415133 L10.1239341,9.82958419 L8.93689596,6.16905249 L12,4.06271302 L10.710631,3.81049761 L8.17282547,3.81049761 L6.9994315,0.23858214 L5.25298465,0 L4.00454804,3.81049761 L0,3.81049761 L3.24047754,6.16905249 L2.0943718,9.69325153 L3.85446276,10 Z M8.09159397,9.25 L5.37846947,7.27396989 L2.65840603,9.25 L3.69924663,6.06755151 L1,4.09152139 L4.33762887,4.09152139 L5.51724822,0.5 L6.41237113,4.09152139 L9.75,4.09152139 L7.05075337,6.06755151 L8.09159397,9.25 Z" id="✰-copy-4"></path>
                        </g>
                        <g id="✰-copy-12" transform="translate(144.000000, 27.000000)" fill="#FFFFFF" fill-rule="nonzero">
                            <path d="M6.10289937,16 L9.77544059,13.273347 L12.8971006,15.5746421 L16.0295623,15.7273347 L14.1500853,9.87048398 L19,6.50034083 L16.9584991,6.09679618 L12.940307,6.09679618 L11.0824332,0.381731425 L8.3172257,0 L6.34053439,6.09679618 L0,6.09679618 L5.13075611,9.87048398 L3.31608869,15.5092025 L6.10289937,16 Z M12.8116905,14.8 L8.51590999,11.6383518 L4.20914288,14.8 L5.8571405,9.70808241 L1.58333333,6.54643423 L6.86791237,6.54643423 L8.73564301,0.8 L10.152921,6.54643423 L15.4375,6.54643423 L11.1636928,9.70808241 L12.8116905,14.8 Z" id="✰-copy-4"></path>
                        </g>
                        <g id="✰-copy-11" transform="translate(211.000000, 32.000000)" fill="#FFFFFF" fill-rule="nonzero">
                            <path d="M5.78169414,15 L9.26094372,12.4437628 L12.2183059,14.601227 L15.1859011,14.7443763 L13.4053439,9.25357873 L18,6.09406953 L16.0659466,5.71574642 L12.2592382,5.71574642 L10.4991472,0.357873211 L7.87947698,0 L6.00682206,5.71574642 L0,5.71574642 L4.86071632,9.25357873 L3.1415577,14.5398773 L5.78169414,15 Z M12.137391,13.875 L8.0677042,10.9109548 L3.98760904,13.875 L5.54886994,9.10132726 L1.5,6.13728209 L6.5064433,6.13728209 L8.27587232,0.75 L9.6185567,6.13728209 L14.625,6.13728209 L10.5761301,9.10132726 L12.137391,13.875 Z" id="✰-copy-4"></path>
                        </g>
                        <g id="✰-copy-10" transform="translate(180.000000, 28.000000)" fill="#FFFFFF" fill-rule="nonzero">
                            <path d="M3.2120523,8 L5.14496873,6.63667348 L6.7879477,7.78732106 L8.43661171,7.86366735 L7.4474133,4.93524199 L10,3.25017042 L8.92552587,3.04839809 L6.81068789,3.04839809 L5.83285958,0.190865712 L4.37748721,0 L3.33712337,3.04839809 L0,3.04839809 L2.70039795,4.93524199 L1.74530984,7.75460123 L3.2120523,8 Z M6.74299498,7.4 L4.48205789,5.81917591 L2.21533836,7.4 L3.08270552,4.8540412 L0.833333333,3.27321712 L3.61469072,3.27321712 L4.59770685,0.4 L5.34364261,3.27321712 L8.125,3.27321712 L5.87562781,4.8540412 L6.74299498,7.4 Z" id="✰-copy-4"></path>
                        </g>
                    </g>
                </g>
                <g id="Combined-Shape-2" transform="translate(437.000000, 393.500000) rotate(15.000000) translate(-437.000000, -393.500000) translate(370.000000, 370.000000)" fill="#648FFD" fill-rule="nonzero">
                    <path d="M130.689449,1.16910527 C132.012986,-0.0477568145 133.887998,1.94347206 132.674755,3.16033415 C132.494225,3.34347237 132.313221,3.52620414 132.131748,3.7085262 C131.320386,6.24065406 130.508591,8.69144479 129.696795,11.2358735 C129.145321,12.8952308 126.498246,12.1208641 127.04972,10.4615067 C127.336183,9.56363893 127.622646,8.67743112 127.90911,7.7953123 C109.381819,25.0892985 86.5095484,38.1825773 61.8654954,43.980526 C48.2992354,47.188617 33.9609118,47.9629838 20.284357,44.644269 C10.6887097,42.3211686 -1.88489709,37.1218488 0.320998845,25.0638517 C0.651883235,23.2938705 3.29895836,24.0682373 2.96807397,25.6169709 C0.100409251,41.1043065 27.1226344,43.6486545 37.0491661,43.8699022 C49.1815938,44.2017737 61.2037266,41.7680495 72.5640907,37.8962156 C91.552926,31.4839174 108.973245,21.0144306 123.896575,7.63389941 C123.180256,8.05109025 122.467913,8.47898881 121.75557,8.91277311 C120.211443,9.79776372 118.77761,7.47466337 120.432032,6.58967276 C123.740876,4.59844389 127.160015,2.82846267 130.689449,1.39035293 L130.311144,1.54738467 Z" id="Combined-Shape"></path>
                </g>
                <g id="Combined-Shape-5" transform="translate(929.000000, 25.000000) rotate(-84.000000) translate(-929.000000, -25.000000) translate(912.000000, -50.000000)" fill="#648FFD" fill-rule="nonzero">
                    <path d="M0.339557259,2.71159086 C-1.05248146,0.880549835 2.19560888,-1.10307795 3.5876476,0.727963082 C33.6863926,40.9097511 42.0387505,94.3926168 25.9779058,141.514195 C26.5953374,140.831366 27.2160442,140.147232 27.8709897,139.429321 C29.5723703,137.59828 32.3564477,140.344842 30.6550671,142.175883 C28.6443445,144.464684 26.7882929,147.363832 24.3135574,149.194873 C22.9215187,150.110394 21.220138,150.415567 19.9827703,149.194873 C18.2813896,147.516419 18.4360606,144.464684 18.1267186,142.328469 C17.6627057,139.276734 17.1986928,136.377586 16.7346799,133.325851 C16.425338,130.884463 20.1374412,129.968942 20.2921122,132.41033 C20.9107961,136.072412 21.5294799,139.887081 22.1481638,143.549163 L21.8385518,141.687046 C38.1624088,95.1959268 30.0847652,42.4829168 0.339557259,2.71159086 Z" id="Combined-Shape"></path>
                </g>
                <g id="Group-4-Copy" transform="translate(963.000000, 50.253493)">
                    <g id="Group-3">
                        <g id="Group-12" transform="translate(63.000000, 9.000000)" fill="#648FFD" fill-rule="nonzero">
                            <ellipse id="Oval" cx="2.42553191" cy="2.5" rx="2.42553191" ry="2.5"></ellipse>
                            <ellipse id="Oval-Copy" cx="9.43589082" cy="2.5" rx="2.42553191" ry="2.5"></ellipse>
                            <ellipse id="Oval-Copy-2" cx="16.4462497" cy="2.5" rx="2.42553191" ry="2.5"></ellipse>
                        </g>
                        <g id="Group" transform="translate(287.500000, 63.000000) rotate(28.000000) translate(-287.500000, -63.000000) translate(261.000000, 36.000000)" fill="#648FFD" fill-rule="nonzero">
                            <path d="M22.9409067,5.84502968 C29.1875642,2.46757949 36.9825385,-0.641819104 44.1902202,0.75204923 C50.4902679,1.9850866 52.8394383,7.61417026 52.3055359,13.5649158 C51.0104041,28.4422993 40.2650088,41.1997507 31.043748,52.1801033 C31.532246,52.1341793 31.9781703,52.0588327 32.1636445,52.0388181 C33.102892,51.9374639 34.0421395,51.7347554 34.9292066,51.4813698 C35.7640933,51.2786614 36.0771758,52.4949122 35.2944695,52.6976207 C33.8855983,53.1030376 32.476727,53.3057461 31.0678557,53.4071003 C30.2329691,53.4577774 29.0328195,53.6098088 28.4066545,52.9510062 C27.7804895,52.2922037 28.093572,51.3293385 28.3022936,50.5691817 C28.719737,49.0995453 29.1371803,47.680586 29.5546236,46.2109496 C29.7633453,45.4001157 31.0156753,45.7548556 30.7547732,46.5656894 C30.4416907,47.5285547 30.1807887,48.4914199 29.9198866,49.4542851 C29.8155257,49.9103792 29.0849999,51.4306927 29.2937216,51.8867868 C29.3165271,51.9399432 29.3536854,51.9853556 29.4028267,52.0239378 C35.1696059,45.1703065 40.9206176,38.2047998 45.2046347,30.3449462 C48.6216097,23.965318 53.7470722,13.1896436 49.7961949,6.00586065 C44.9910737,-2.67901129 30.3087591,3.37895494 24.0087114,6.75640513 C15.733225,11.1524514 8.20520186,17.0495867 1.47803226,23.5364355 C0.837349437,24.126149 -0.0702845571,23.2147735 0.570398262,22.62506 C7.29756786,16.1382112 14.7722008,10.2946863 22.9409067,5.84502968 Z" id="Combined-Shape"></path>
                        </g>
                        <g id="Group-Copy-4" transform="translate(100.000000, 124.000000) scale(-1, 1) rotate(61.000000) translate(-100.000000, -124.000000) translate(80.000000, 104.000000)" fill="#648FFD" fill-rule="nonzero">
                            <path d="M17.1818604,4.12906679 C21.9123389,1.58488372 27.8153292,-0.757380055 33.2735736,0.292600259 C38.0444835,1.221429 39.8234668,5.46173411 39.4191524,9.94434238 C38.4465464,21.0578606 30.4362119,30.6009707 23.4928108,38.8255209 C23.7241224,38.7953359 23.916529,38.7644719 24.0124011,38.7541231 C24.68948,38.6810362 25.3665589,38.5348624 26.0060223,38.3521451 C26.6078703,38.2059713 26.8335632,39.0830142 26.2693308,39.229188 C25.2537124,39.5215356 24.2380941,39.6677095 23.2224757,39.7407964 C23.0610184,39.7505999 22.8806113,39.7656633 22.6943265,39.7732869 L22.6805363,39.7880136 C22.4375496,40.052778 22.1221508,39.9559077 21.9519327,39.7344974 C21.7019705,39.6864693 21.4737864,39.5905084 21.3040855,39.4119053 C20.8526995,38.9368404 21.0783925,38.2425147 21.2288545,37.6943629 C21.5297784,36.6346027 21.8307024,35.6113859 22.1316264,34.5516258 C22.2820883,33.9669305 23.1848602,34.2227347 22.9967827,34.8074299 C22.7710898,35.5017556 22.5830123,36.1960812 22.3949348,36.8904069 C22.3197038,37.219298 21.7930869,38.3156016 21.9435489,38.6444927 C21.9771342,38.7228001 22.0539005,38.7778018 22.1592828,38.815116 C26.4981085,33.6850492 30.8183191,28.4673224 34.0417709,22.58449 C36.6293831,17.7788109 40.5108013,9.66165537 37.5188748,4.25021837 C33.8800452,-2.29196667 22.7613991,2.27140931 17.9904892,4.81559238 C11.723616,8.12706876 6.02278297,12.5692932 0.928421526,17.45574 C0.443244246,17.8999624 -0.244090235,17.2134369 0.241087046,16.7692144 C5.33544849,11.8827676 10.9958501,7.48092702 17.1818604,4.12906679 Z" id="Combined-Shape"></path>
                        </g>
                        <text id="Создавай-и-резюме-то" font-family="PTRootUIWeb-Bold, PT Root UI Web" font-size="24" font-weight="bold" line-spacing="24" letter-spacing="0.0269020036" fill="#FFFFFF">
                            <tspan x="55.5" y="285">Создавай и резюме тоже</tspan>
                        </text>
                        <text id="Легко-добавляй,-удал" font-family="PTRootUIWeb-Medium, PT Root UI Web" font-size="14" font-weight="400" line-spacing="24" letter-spacing="0.0156928355" fill="#FFFFFF">
                            <tspan x="0.473447025" y="299">Легко добавляй, удаляй и меняй местами строчки в резюме</tspan>
                        </text>
                        <path d="M56.7064243,0.513110391 C144.818455,4.29704466 228.535545,5.00500202 329.890138,2.79373867 L58.9081915,1.56104937 C116.593155,1.16297257 177.263853,0.637805078 331.119341,3.68867088 L329.511985,2.52077798 C330.511896,69.1101166 329.16354,128.92773 332.298184,203.663395 L331.806448,3.38937296 C328.700414,83.1515158 329.557269,162.83479 330.121403,201.83301 L332.013922,203.901271 C246.696225,199.872656 161.742945,198.791914 60.2320244,202.467808 L331.406221,202.14078 C251.588886,200.580405 172.201053,200.01307 59.3541641,201.642564 L59.8321417,202.645478 C61.3289755,161.449911 61.1932277,115.26366 58.1608801,3.61077734 L59.3991622,202.437157 C59.097335,134.775695 60.0520244,68.6637882 60.7118417,4.18159173 L59.9156835,4.079933 C59.7128393,3.38741298 58.88666,3.24972752 58.1434611,2.16484691 L60.0550985,3.92659889 C59.5776273,3.53412486 58.8882892,3.08003215 58.1972975,2.35383342" id="Path" stroke="#648FFD"></path>
                        <g id="Group-2" transform="translate(127.000000, 36.000000)" fill="#648FFD" fill-rule="nonzero">
                            <g id="Group-Copy">
                                <path d="M132.173133,0.00139076917 C132.60438,-0.02640071 132.973357,0.357412464 132.997268,0.858661488 C133.021178,1.35991051 132.690967,1.78878258 132.259721,1.81657406 L126.29104,2.1956195 C109.684371,3.23188424 102.527817,3.49877838 95.6469615,3.42180751 L92.9850618,3.37863621 L86.7782637,3.23373767 C68.0222009,2.8210416 46.9715801,2.91829558 0.796645961,3.99978085 C0.364824743,4.00989474 0.00771037302,3.61120957 -0.00164254165,3.10928121 C-0.00969299198,2.6073756 0.333313163,2.19229256 0.765134382,2.18217867 L10.4782622,1.96102566 C50.0201005,1.08875991 69.3994917,1.03304085 86.8083551,1.41610291 L93.3741611,1.56833634 L95.4316776,1.60121415 C103.113713,1.6957835 111.029979,1.36395136 132.173133,0.00139076917 Z" id="Path-Copy"></path>
                                <path d="M132.173133,9.00139077 C132.60438,8.97359929 132.973357,9.35741246 132.997268,9.85866149 C133.021178,10.3599105 132.690967,10.7887826 132.259721,10.8165741 L126.29104,11.1956195 C109.684371,12.2318842 102.527817,12.4987784 95.6469615,12.4218075 L92.9850618,12.3786362 L86.7782637,12.2337377 C68.0222009,11.8210416 46.9715801,11.9182956 0.796645961,12.9997809 C0.364824743,13.0098947 0.00771037302,12.6112096 -0.00164254165,12.1092812 C-0.00969299198,11.6073756 0.333313163,11.1922926 0.765134382,11.1821787 L10.4782622,10.9610257 C50.0201005,10.0887599 69.3994917,10.0330409 86.8083551,10.4161029 L93.3741611,10.5683363 L95.4316776,10.6012141 C103.113713,10.6957835 111.029979,10.3639514 132.173133,9.00139077 Z" id="Path-Copy-2"></path>
                                <path d="M132.173133,19.0013908 C132.60438,18.9735993 132.973357,19.3574125 132.997268,19.8586615 C133.021178,20.3599105 132.690967,20.7887826 132.259721,20.8165741 L126.29104,21.1956195 C109.684371,22.2318842 102.527817,22.4987784 95.6469615,22.4218075 L92.9850618,22.3786362 L86.7782637,22.2337377 C68.0222009,21.8210416 46.9715801,21.9182956 0.796645961,22.9997809 C0.364824743,23.0098947 0.00771037302,22.6112096 -0.00164254165,22.1092812 C-0.00969299198,21.6073756 0.333313163,21.1922926 0.765134382,21.1821787 L10.4782622,20.9610257 C50.0201005,20.0887599 69.3994917,20.0330409 86.8083551,20.4161029 L93.3741611,20.5683363 L95.4316776,20.6012141 C103.113713,20.6957835 111.029979,20.3639514 132.173133,19.0013908 Z" id="Path-Copy-3"></path>
                                <path d="M132.173133,29.0013908 C132.60438,28.9735993 132.973357,29.3574125 132.997268,29.8586615 C133.021178,30.3599105 132.690967,30.7887826 132.259721,30.8165741 L126.29104,31.1956195 C109.684371,32.2318842 102.527817,32.4987784 95.6469615,32.4218075 L92.9850618,32.3786362 L86.7782637,32.2337377 C68.0222009,31.8210416 46.9715801,31.9182956 0.796645961,32.9997809 C0.364824743,33.0098947 0.00771037302,32.6112096 -0.00164254165,32.1092812 C-0.00969299198,31.6073756 0.333313163,31.1922926 0.765134382,31.1821787 L10.4782622,30.9610257 C50.0201005,30.0887599 69.3994917,30.0330409 86.8083551,30.4161029 L93.3741611,30.5683363 L95.4316776,30.6012141 C103.113713,30.6957835 111.029979,30.3639514 132.173133,29.0013908 Z" id="Path-Copy-4"></path>
                                <path d="M132.173133,38.0013908 C132.60438,37.9735993 132.973357,38.3574125 132.997268,38.8586615 C133.021178,39.3599105 132.690967,39.7887826 132.259721,39.8165741 L126.29104,40.1956195 C109.684371,41.2318842 102.527817,41.4987784 95.6469615,41.4218075 L92.9850618,41.3786362 L86.7782637,41.2337377 C68.0222009,40.8210416 46.9715801,40.9182956 0.796645961,41.9997809 C0.364824743,42.0098947 0.00771037302,41.6112096 -0.00164254165,41.1092812 C-0.00969299198,40.6073756 0.333313163,40.1922926 0.765134382,40.1821787 L10.4782622,39.9610257 C50.0201005,39.0887599 69.3994917,39.0330409 86.8083551,39.4161029 L93.3741611,39.5683363 L95.4316776,39.6012141 C103.113713,39.6957835 111.029979,39.3639514 132.173133,38.0013908 Z" id="Path-Copy-5"></path>
                            </g>
                            <g id="Group-Copy-2" transform="translate(0.000000, 61.000000)">
                                <path d="M35.7765946,0.00141888076 C35.8933235,-0.0263725914 35.9931975,0.357440222 35.9996696,0.858688792 C36.0061416,1.35993736 35.9167608,1.78880906 35.800032,1.81660053 L34.1844427,2.19564588 C29.6893869,3.23191038 27.7522667,3.49880458 25.8897722,3.42183407 L25.1692552,3.37866292 L23.4892129,3.23376477 C18.4123638,2.82106986 12.7144289,2.91832463 0.215901022,3.99981086 C0.0990166206,4.00992476 0.00235370012,3.61123996 -1.65404828e-06,3.10932342 C-0.00235700822,2.60740689 0.0904871286,2.19232421 0.20737153,2.18221031 L2.83649925,1.9610571 C13.5395955,1.08879048 18.7851658,1.03307066 23.497358,1.41613165 L25.2745757,1.56836466 L25.8314996,1.60124236 C27.9108557,1.6958113 30.053613,1.36397912 35.7765946,0.00141888076 Z" id="Path-Copy"></path>
                                <path d="M35.7765946,9.00141888 C35.8933235,8.97362741 35.9931975,9.35744022 35.9996696,9.85868879 C36.0061416,10.3599374 35.9167608,10.7888091 35.800032,10.8166005 L34.1844427,11.1956459 C29.6893869,12.2319104 27.7522667,12.4988046 25.8897722,12.4218341 L25.1692552,12.3786629 L23.4892129,12.2337648 C18.4123638,11.8210699 12.7144289,11.9183246 0.215901022,12.9998109 C0.0990166206,13.0099248 0.00235370012,12.61124 -1.65404921e-06,12.1093234 C-0.00235700822,11.6074069 0.0904871286,11.1923242 0.20737153,11.1822103 L2.83649925,10.9610571 C13.5395955,10.0887905 18.7851658,10.0330707 23.497358,10.4161316 L25.2745757,10.5683647 L25.8314996,10.6012424 C27.9108557,10.6958113 30.053613,10.3639791 35.7765946,9.00141888 Z" id="Path-Copy-2"></path>
                                <path d="M35.7765946,48.0014189 C35.8933235,47.9736274 35.9931975,48.3574402 35.9996696,48.8586888 C36.0061416,49.3599374 35.9167608,49.7888091 35.800032,49.8166005 L34.1844427,50.1956459 C29.6893869,51.2319104 27.7522667,51.4988046 25.8897722,51.4218341 L25.1692552,51.3786629 L23.4892129,51.2337648 C18.4123638,50.8210699 12.7144289,50.9183246 0.215901022,51.9998109 C0.0990166206,52.0099248 0.00235370012,51.61124 -1.6540482e-06,51.1093234 C-0.00235700822,50.6074069 0.0904871286,50.1923242 0.20737153,50.1822103 L2.83649925,49.9610571 C13.5395955,49.0887905 18.7851658,49.0330707 23.497358,49.4161316 L25.2745757,49.5683647 L25.8314996,49.6012424 C27.9108557,49.6958113 30.053613,49.3639791 35.7765946,48.0014189 Z" id="Path-Copy-6"></path>
                                <path d="M35.7765946,19.0014189 C35.8933235,18.9736274 35.9931975,19.3574402 35.9996696,19.8586888 C36.0061416,20.3599374 35.9167608,20.7888091 35.800032,20.8166005 L34.1844427,21.1956459 C29.6893869,22.2319104 27.7522667,22.4988046 25.8897722,22.4218341 L25.1692552,22.3786629 L23.4892129,22.2337648 C18.4123638,21.8210699 12.7144289,21.9183246 0.215901022,22.9998109 C0.0990166206,23.0099248 0.00235370012,22.61124 -1.65404854e-06,22.1093234 C-0.00235700822,21.6074069 0.0904871286,21.1923242 0.20737153,21.1822103 L2.83649925,20.9610571 C13.5395955,20.0887905 18.7851658,20.0330707 23.497358,20.4161316 L25.2745757,20.5683647 L25.8314996,20.6012424 C27.9108557,20.6958113 30.053613,20.3639791 35.7765946,19.0014189 Z" id="Path-Copy-3"></path>
                                <path d="M35.7765946,57.0014189 C35.8933235,56.9736274 35.9931975,57.3574402 35.9996696,57.8586888 C36.0061416,58.3599374 35.9167608,58.7888091 35.800032,58.8166005 L34.1844427,59.1956459 C29.6893869,60.2319104 27.7522667,60.4988046 25.8897722,60.4218341 L25.1692552,60.3786629 L23.4892129,60.2337648 C18.4123638,59.8210699 12.7144289,59.9183246 0.215901022,60.9998109 C0.0990166206,61.0099248 0.00235370012,60.61124 -1.65404744e-06,60.1093234 C-0.00235700822,59.6074069 0.0904871286,59.1923242 0.20737153,59.1822103 L2.83649925,58.9610571 C13.5395955,58.0887905 18.7851658,58.0330707 23.497358,58.4161316 L25.2745757,58.5683647 L25.8314996,58.6012424 C27.9108557,58.6958113 30.053613,58.3639791 35.7765946,57.0014189 Z" id="Path-Copy-7"></path>
                                <path d="M35.7765946,38.0014189 C35.8933235,37.9736274 35.9931975,38.3574402 35.9996696,38.8586888 C36.0061416,39.3599374 35.9167608,39.7888091 35.800032,39.8166005 L34.1844427,40.1956459 C29.6893869,41.2319104 27.7522667,41.4988046 25.8897722,41.4218341 L25.1692552,41.3786629 L23.4892129,41.2337648 C18.4123638,40.8210699 12.7144289,40.9183246 0.215901022,41.9998109 C0.0990166206,42.0099248 0.00235370012,41.61124 -1.65404916e-06,41.1093234 C-0.00235700822,40.6074069 0.0904871286,40.1923242 0.20737153,40.1822103 L2.83649925,39.9610571 C13.5395955,39.0887905 18.7851658,39.0330707 23.497358,39.4161316 L25.2745757,39.5683647 L25.8314996,39.6012424 C27.9108557,39.6958113 30.053613,39.3639791 35.7765946,38.0014189 Z" id="Path-Copy-5"></path>
                            </g>
                            <g id="Group-Copy-3" transform="translate(51.000000, 61.000000)">
                                <path d="M81.4904707,0.00140675528 C81.7563544,-0.0263846653 81.9838466,0.357428526 81.9985887,0.858677512 C82.0133309,1.3599265 81.8097403,1.78879848 81.5438566,1.81658991 L77.8638844,2.19563454 C67.6250932,3.23189703 63.212741,3.49879021 58.9703703,3.42181845 L57.329184,3.37864681 L53.5024011,3.23374747 C41.9384067,2.82104899 28.9597096,2.91830021 0.490692856,3.99977937 C0.224454783,4.0098932 0.00427684344,3.61120801 -0.00177890611,3.10927901 C-0.00645351559,2.60737412 0.205025749,2.19229116 0.471263823,2.18217733 L6.4598636,1.96102561 C30.8392651,1.08876509 42.7875706,1.03304856 53.5209533,1.41611286 L57.5690813,1.56834713 L58.837637,1.60122521 C63.5739726,1.69579556 68.4547228,1.36396447 81.4904707,0.00140675528 Z" id="Path-Copy"></path>
                                <path d="M81.4904707,9.00140676 C81.7563544,8.97361533 81.9838466,9.35742853 81.9985887,9.85867751 C82.0133309,10.3599265 81.8097403,10.7887985 81.5438566,10.8165899 L77.8638844,11.1956345 C67.6250932,12.231897 63.212741,12.4987902 58.9703703,12.4218185 L57.329184,12.3786468 L53.5024011,12.2337475 C41.9384067,11.821049 28.9597096,11.9183002 0.490692856,12.9997794 C0.224454783,13.0098932 0.00427684344,12.611208 -0.00177890611,12.109279 C-0.0064535156,11.6073741 0.205025749,11.1922912 0.471263823,11.1821773 L6.4598636,10.9610256 C30.8392651,10.0887651 42.7875706,10.0330486 53.5209533,10.4161129 L57.5690813,10.5683471 L58.837637,10.6012252 C63.5739726,10.6957956 68.4547228,10.3639645 81.4904707,9.00140676 Z" id="Path-Copy-2"></path>
                                <path d="M81.4904707,48.0014068 C81.7563544,47.9736153 81.9838466,48.3574285 81.9985887,48.8586775 C82.0133309,49.3599265 81.8097403,49.7887985 81.5438566,49.8165899 L77.8638844,50.1956345 C67.6250932,51.231897 63.212741,51.4987902 58.9703703,51.4218185 L57.329184,51.3786468 L53.5024011,51.2337475 C41.9384067,50.821049 28.9597096,50.9183002 0.490692856,51.9997794 C0.224454783,52.0098932 0.00427684344,51.611208 -0.00177890611,51.109279 C-0.0064535156,50.6073741 0.205025749,50.1922912 0.471263823,50.1821773 L6.4598636,49.9610256 C30.8392651,49.0887651 42.7875706,49.0330486 53.5209533,49.4161129 L57.5690813,49.5683471 L58.837637,49.6012252 C63.5739726,49.6957956 68.4547228,49.3639645 81.4904707,48.0014068 Z" id="Path-Copy-6"></path>
                                <path d="M81.4904707,19.0014068 C81.7563544,18.9736153 81.9838466,19.3574285 81.9985887,19.8586775 C82.0133309,20.3599265 81.8097403,20.7887985 81.5438566,20.8165899 L77.8638844,21.1956345 C67.6250932,22.231897 63.212741,22.4987902 58.9703703,22.4218185 L57.329184,22.3786468 L53.5024011,22.2337475 C41.9384067,21.821049 28.9597096,21.9183002 0.490692856,22.9997794 C0.224454783,23.0098932 0.00427684344,22.611208 -0.00177890611,22.109279 C-0.00645351559,21.6073741 0.205025749,21.1922912 0.471263823,21.1821773 L6.4598636,20.9610256 C30.8392651,20.0887651 42.7875706,20.0330486 53.5209533,20.4161129 L57.5690813,20.5683471 L58.837637,20.6012252 C63.5739726,20.6957956 68.4547228,20.3639645 81.4904707,19.0014068 Z" id="Path-Copy-3"></path>
                                <path d="M81.4904707,57.0014068 C81.7563544,56.9736153 81.9838466,57.3574285 81.9985887,57.8586775 C82.0133309,58.3599265 81.8097403,58.7887985 81.5438566,58.8165899 L77.8638844,59.1956345 C67.6250932,60.231897 63.212741,60.4987902 58.9703703,60.4218185 L57.329184,60.3786468 L53.5024011,60.2337475 C41.9384067,59.821049 28.9597096,59.9183002 0.490692856,60.9997794 C0.224454783,61.0098932 0.00427684344,60.611208 -0.00177890611,60.109279 C-0.0064535156,59.6073741 0.205025749,59.1922912 0.471263823,59.1821773 L6.4598636,58.9610256 C30.8392651,58.0887651 42.7875706,58.0330486 53.5209533,58.4161129 L57.5690813,58.5683471 L58.837637,58.6012252 C63.5739726,58.6957956 68.4547228,58.3639645 81.4904707,57.0014068 Z" id="Path-Copy-7"></path>
                                <path d="M81.4904707,38.0014068 C81.7563544,37.9736153 81.9838466,38.3574285 81.9985887,38.8586775 C82.0133309,39.3599265 81.8097403,39.7887985 81.5438566,39.8165899 L77.8638844,40.1956345 C67.6250932,41.231897 63.212741,41.4987902 58.9703703,41.4218185 L57.329184,41.3786468 L53.5024011,41.2337475 C41.9384067,40.821049 28.9597096,40.9183002 0.490692856,41.9997794 C0.224454783,42.0098932 0.00427684344,41.611208 -0.00177890611,41.109279 C-0.0064535156,40.6073741 0.205025749,40.1922912 0.471263823,40.1821773 L6.4598636,39.9610256 C30.8392651,39.0887651 42.7875706,39.0330486 53.5209533,39.4161129 L57.5690813,39.5683471 L58.837637,39.6012252 C63.5739726,39.6957956 68.4547228,39.3639645 81.4904707,38.0014068 Z" id="Path-Copy-5"></path>
                            </g>
                        </g>
                    </g>
                </g>
                <g id="Combined-Shape-12-Copy" transform="translate(984.747937, 497.456160) rotate(43.000000) translate(-984.747937, -497.456160) translate(966.747937, 404.956160)" fill="#648FFD" fill-rule="nonzero">
                    <path d="M19.7548097,0.353229458 C27.2427417,-0.141235048 27.4923395,8.92394756 27.1595425,14.2806464 C26.7435463,22.1920785 23.8315727,29.6914568 20.7532007,36.9436029 C17.0924339,45.5967317 13.3484679,54.0850391 10.6028929,63.0678109 C8.10691554,71.1440645 5.19494198,80.1268364 5.02854349,88.6975545 C4.86214501,93.147735 6.02693443,98.2572016 10.8524906,99.8230058 C14.5132574,100.976756 18.5068211,100.070238 22.3339863,100.564703 C36.4778579,102.46015 36.3114594,123.392481 34.148279,133.611414 C32.4842941,141.522846 29.2395236,149.104635 25.2459599,156.109549 C21.0586964,163.607097 14.7671784,171.95381 17.4595638,180.925543 L18.0207543,180.416655 C19.6290903,178.950259 21.2426353,177.472799 22.840553,176.028534 C23.785239,175.19185 25.3839689,176.475866 24.4041213,177.387239 C22.0072448,179.553637 19.5752067,181.794724 17.1783301,183.961122 C16.5250984,184.568704 15.7761383,184.404628 15.3838744,183.677865 C13.6487675,180.148533 12.3559231,176.459757 11.5053413,172.611535 C11.2838039,171.327117 13.2892288,171.162237 13.6564933,172.332104 C13.9584578,173.640681 14.3072155,174.924478 14.7080346,176.19007 L14.7877756,176.43501 C14.8669868,171.067337 17.3242033,165.903184 20.0044075,161.136605 C24.4139674,153.389994 28.7403281,145.808205 31.2363055,137.155076 C33.3994858,129.490876 34.148279,121.16739 31.9018994,113.42078 C30.5707115,109.05301 28.5739297,104.273186 23.8315727,102.954614 C20.5036029,102.048096 16.8428362,102.707382 13.4316672,102.377739 C0.119788077,101.059167 2.7821639,86.1428212 4.77894576,76.9952278 C6.52612989,69.1662065 8.77250949,61.4195959 11.5180846,53.9202176 C14.2636596,46.2560177 17.9244264,38.9214609 20.8363999,31.3396718 C23.7483735,23.8402935 26.2443508,15.5168076 24.8299637,7.44055404 C24.7467644,6.69885728 24.5803659,6.03957127 24.3307682,5.29787451 C22.5835841,4.3089455 20.7532007,3.40242724 19.0060165,2.49590898 C18.3404226,2.49590898 17.2588324,2.90796274 16.5932385,3.07278424 C14.6796558,3.56724874 12.8492725,4.3089455 11.1020883,5.29787451 C7.60772007,7.19332179 4.61254727,9.91287657 2.28296843,13.1268959 C1.53417523,14.1982356 -0.296208145,13.2093066 0.36938581,12.1379668 C4.77894576,6.12198202 11.9340808,0.847693964 19.7548097,0.353229458 Z" id="Combined-Shape"></path>
                </g>
                <g id="Group-4" transform="translate(445.000000, 592.253493)">
                    <path d="M1,32 C420.077752,23.529084 263.080635,32.1128882 470,24" id="Path" stroke="#648FFD" stroke-width="3" stroke-linecap="round" fill-rule="nonzero" transform="translate(235.500000, 28.000000) rotate(1.000000) translate(-235.500000, -28.000000) "></path>
                    <text id="И-главное-—-быстро-д" font-family="PTRootUIWeb-Bold, PT Root UI Web" font-size="24" font-weight="bold" line-spacing="24" letter-spacing="0.0269020036" fill="#FFFFFF">
                        <tspan x="0.5" y="24">И главное — быстро делай разные версии!</tspan>
                    </text>
                    <text id="Копируй,-изменяй-и-э" font-family="PTRootUIWeb-Medium, PT Root UI Web" font-size="14" font-weight="400" line-spacing="24" letter-spacing="0.0156928355" fill="#FFFFFF">
                        <tspan x="9.86067568" y="46">Копируй, изменяй и экспортируй новую версию для каждой вакансии</tspan>
                    </text>
                </g>
            </g>
        </g>
    </g>
</svg>