<?xml version="1.0" encoding="UTF-8"?>
<svg width="319px" height="61px" viewBox="0 0 319 61" version="1.1" xmlns="http://www.w3.org/2000/svg" xmlns:xlink="http://www.w3.org/1999/xlink">
    <!-- Generator: Sketch 64 (93537) - https://sketch.com -->
    <title>Combined Shape 12</title>
    <desc>Created with Sketch.</desc>
    <g id="5_Pages/Other-Pages" stroke="none" stroke-width="1" fill="none" fill-rule="evenodd">
        <g id="Landing-Page-(Sign-Up/Sign-In)" transform="translate(-332.000000, -2934.000000)" fill="#648FFD" fill-rule="nonzero">
            <g id="Combined-Shape-12" transform="translate(491.500000, 2964.500000) scale(-1, 1) rotate(90.000000) translate(-491.500000, -2964.500000) translate(461.000000, 2805.000000)">
                <path d="M34.0354551,0.0337113609 C47.0858509,-0.824734496 47.5208641,14.9134395 46.9408465,24.2132697 C46.2473472,37.3512236 41.573765,49.83466 36.4733334,61.9140028 L35.7755079,63.5587048 C29.3953144,78.5815073 22.8701165,93.3181611 18.0849714,108.913261 C13.7348395,122.934543 8.65968561,138.529643 8.36967682,153.409371 C8.07966802,161.135384 10.1097296,170.005991 18.5199846,172.724403 C24.9001781,174.727443 31.8603892,173.153626 38.5305915,174.012072 C63.181339,177.302781 62.8913302,213.643655 59.1212159,231.38487 C56.2211279,245.120003 50.5659564,258.28284 43.6057454,270.444156 C36.6577388,282.836836 26.3854619,296.56582 29.4662097,311.295288 C30.8931743,307.877904 32.3193103,304.439227 33.7454463,301.062058 C34.6154727,299.059018 38.0955783,299.917464 37.2255519,302.063579 C35.0504859,307.214254 32.87542,312.508003 30.700354,317.658678 C30.1203364,319.089421 28.8152968,319.37557 27.6552617,318.517124 C22.290099,314.224895 17.5049538,309.360368 13.2998263,303.923545 C11.9947867,302.063579 15.0398791,300.346687 16.4899231,301.920504 C19.3926952,305.602963 22.5178238,308.992893 25.971291,312.142579 C23.5884775,300.527042 28.7366979,289.329385 34.4704683,279.171689 C42.1557014,265.722704 49.6959301,252.559868 54.046062,237.537065 C57.8161763,224.231154 59.1212159,209.780649 55.2060972,196.331664 C52.8860268,188.748726 49.4059213,180.450416 41.1406706,178.161227 C35.3404947,176.587409 28.9603012,177.732004 23.0151209,177.159706 C-0.185582627,174.870518 4.45455809,148.974068 7.93466362,133.092819 C10.979756,119.50076 14.8948747,106.051775 19.6800198,93.0320125 C24.4651649,79.7261017 30.8453584,66.9924882 35.9205123,53.8296517 C40.9956662,40.8098896 45.3457981,26.3593843 42.8807234,12.338102 C42.735719,11.0504332 42.4457102,9.90583871 42.010697,8.61816993 C38.9656047,6.90127821 35.7755079,5.32746081 32.7304156,3.75364341 C31.5703804,3.75364341 29.6853232,4.46901495 28.525288,4.75516357 C25.1901869,5.61360943 22.0000902,6.90127821 18.9549978,8.61816993 C12.8648131,11.908879 7.64465483,16.6303313 3.5845317,22.2102293 C2.27949213,24.0701953 -0.910604614,22.3533036 0.249430565,20.4933376 C7.93466362,10.048913 20.4050418,0.892157218 34.0354551,0.0337113609 Z" id="Combined-Shape"></path>
            </g>
        </g>
    </g>
</svg>