<?xml version="1.0" encoding="UTF-8"?>
<svg width="248px" height="32px" viewBox="0 0 248 32" version="1.1" xmlns="http://www.w3.org/2000/svg" xmlns:xlink="http://www.w3.org/1999/xlink">
    <!-- Generator: Sketch 64 (93537) - https://sketch.com -->
    <title>Combined Shape 9</title>
    <desc>Created with Sketch.</desc>
    <g id="5_Pages/Other-Pages" stroke="none" stroke-width="1" fill="none" fill-rule="evenodd">
        <g id="Landing-Page-(Sign-Up/Sign-In)" transform="translate(-485.000000, -2687.000000)" fill="#648FFD" fill-rule="nonzero">
            <g id="Combined-Shape-9" transform="translate(608.917897, 2704.218838) rotate(-102.000000) translate(-608.917897, -2704.218838) translate(572.417897, 2584.218838)">
                <path d="M68.1767665,2.20863687 C68.0374081,-0.0404090926 71.521369,-0.0404090926 71.6607274,2.20863687 C78.8269431,83.7654558 13.3148997,148.914053 8.90059904,228.467274 C10.508268,225.263123 12.1179876,222.061718 13.6876183,218.819877 C14.8024858,216.851961 17.729013,218.679311 16.7535039,220.647226 C13.8269768,226.691538 10.7610912,232.595283 7.83456406,238.639594 C6.99841345,240.326379 4.76867849,239.342421 4.62932005,237.796202 C4.21124474,232.454718 2.81766039,227.253799 0.448566991,222.474576 C-0.666300491,220.506661 2.39958509,218.679311 3.37509413,220.506661 C4.22710762,222.270677 4.96368479,224.049248 5.58482565,225.85174 C11.2606963,147.470636 75.2643041,82.7351554 68.1767665,2.20863687 Z M7.94125942,237.230735 C7.75514184,237.349394 7.54540353,237.430914 7.3268306,237.475295 C7.54880111,237.534971 7.76457097,237.595304 7.9739225,237.655637 Z M4.76867849,236.812244 C5.07209179,236.888755 5.37550509,236.965265 5.67610929,237.041775 C5.37968914,236.762255 5.18675379,236.357545 5.18675379,235.828287 L5.18864818,235.947693 C5.04836101,236.235577 4.90836101,236.523751 4.76867849,236.812244 Z" id="Combined-Shape"></path>
            </g>
        </g>
    </g>
</svg>