<?xml version="1.0" encoding="UTF-8"?>
<svg width="18px" height="14px" viewBox="0 0 18 14" version="1.1" xmlns="http://www.w3.org/2000/svg" xmlns:xlink="http://www.w3.org/1999/xlink">
    <!-- Generator: Sketch 64 (93537) - https://sketch.com -->
    <title>0_Quarks/Icons/Menu/Portfolios/Default</title>
    <desc>Created with Sketch.</desc>
    <g id="0_Quarks/Icons/Menu/Portfolios/Default" stroke="none" stroke-width="1" fill="none" fill-rule="evenodd">
        <path d="M8,0 L8,6 L0,6 L0,0 L8,0 Z M6,2 L2,2 L2,4 L6,4 L6,2 Z" id="Rectangle" fill="#FFFFFF" fill-rule="nonzero"></path>
        <path d="M18,0 L18,6 L10,6 L10,0 L18,0 Z M16,2 L12,2 L12,4 L16,4 L16,2 Z" id="Rectangle" fill="#FFFFFF" fill-rule="nonzero"></path>
        <path d="M8,8 L8,14 L0,14 L0,8 L8,8 Z M6,10 L2,10 L2,12 L6,12 L6,10 Z" id="Rectangle" fill="#FFFFFF" fill-rule="nonzero"></path>
        <path d="M18,8 L18,14 L10,14 L10,8 L18,8 Z M16,10 L12,10 L12,12 L16,12 L16,10 Z" id="Rectangle" fill="#FFFFFF" fill-rule="nonzero"></path>
    </g>
</svg>
