<?xml version="1.0" encoding="UTF-8"?>
<svg width="97px" height="28px" viewBox="0 0 97 28" version="1.1" xmlns="http://www.w3.org/2000/svg" xmlns:xlink="http://www.w3.org/1999/xlink">
    <!-- Generator: Sketch 64 (93537) - https://sketch.com -->
    <title>Group 13</title>
    <desc>Created with Sketch.</desc>
    <g id="Лендинг" stroke="none" stroke-width="1" fill="none" fill-rule="evenodd">
        <g id="Desktop-HD-Copy-29" transform="translate(-2348.000000, -3364.000000)" fill-rule="nonzero">
            <g id="Group-13" transform="translate(2348.000000, 3364.000000)">
                <path d="M93,1 L9,1 C8.17157288,1 7.42157288,1.33578644 6.87867966,1.87867966 C6.33578644,2.42157288 6,3.17157288 6,4 L6,6 L4,6 C3.17157288,6 2.42157288,6.33578644 1.87867966,6.87867966 C1.33578644,7.42157288 1,8.17157288 1,9 L1,24 C1,24.8284271 1.33578644,25.5784271 1.87867966,26.1213203 C2.42157288,26.6642136 3.17157288,27 4,27 L88,27 C88.8284271,27 89.5784271,26.6642136 90.1213203,26.1213203 C90.6642136,25.5784271 91,24.8284271 91,24 L91,22 L93,22 C93.8284271,22 94.5784271,21.6642136 95.1213203,21.1213203 C95.6642136,20.5784271 96,19.8284271 96,19 L96,4 C96,3.17157288 95.6642136,2.42157288 95.1213203,1.87867966 C94.5784271,1.33578644 93.8284271,1 93,1 Z" id="Combined-Shape" stroke="#648FFD" stroke-width="2"></path>
                <rect id="Rectangle" stroke="#648FFD" stroke-width="2" x="1" y="6" width="90" height="21" rx="4"></rect>
                <path d="M7.4611399,11.5714286 L12.3313232,11.5714286 C13.0405768,11.5714286 13.6552539,11.6488088 14.1753732,11.8035714 C14.6954925,11.9583341 15.1269486,12.1815462 15.4697544,12.4732143 C15.8125603,12.7648824 16.0676908,13.1210296 16.2351534,13.5416667 C16.402616,13.9623037 16.4863461,14.4365053 16.4863461,14.9642857 C16.4863461,15.4603199 16.4036011,15.9186487 16.2381086,16.3392857 C16.0726161,16.7599227 15.8194558,17.1240064 15.4786201,17.4315476 C15.1377843,17.7390888 14.7073133,17.9791658 14.187194,18.1517857 C13.6670748,18.3244056 13.0523976,18.4107143 12.343144,18.4107143 L9.33474197,18.4047619 L9.33474197,20.875 L7.4611399,20.875 L7.4611399,11.5714286 Z M12.3786065,16.7738095 C12.7332333,16.7738095 13.0435271,16.7311512 13.3094972,16.6458333 C13.5754672,16.5605154 13.7980907,16.4394849 13.9773742,16.2827381 C14.1566578,16.1259913 14.2906259,15.935517 14.3792826,15.7113095 C14.4679393,15.4871021 14.5122669,15.2380966 14.5122669,14.9642857 C14.5122669,14.4126957 14.3339712,13.9831365 13.9773742,13.6755952 C13.6207773,13.368054 13.0878601,13.2142857 12.3786065,13.2142857 L9.33474197,13.2142857 L9.33474197,16.7738095 L12.3786065,16.7738095 Z M17.9065934,17.3630952 C17.9065934,16.8591245 18.0080546,16.386907 18.2109799,15.9464286 C18.4139052,15.5059502 18.7035127,15.1210334 19.0798111,14.7916667 C19.4561096,14.4622999 19.9112071,14.2023819 20.4451174,14.0119048 C20.9790277,13.8214276 21.578929,13.7261905 22.2448393,13.7261905 C22.9107495,13.7261905 23.5106508,13.8214276 24.0445611,14.0119048 C24.5784714,14.2023819 25.033569,14.4622999 25.4098674,14.7916667 C25.7861658,15.1210334 26.0757733,15.5059502 26.2786986,15.9464286 C26.4816239,16.386907 26.5830851,16.8591245 26.5830851,17.3630952 C26.5830851,17.867066 26.4816239,18.3392835 26.2786986,18.7797619 C26.0757733,19.2202403 25.7861658,19.6051571 25.4098674,19.9345238 C25.033569,20.2638905 24.5784714,20.5238086 24.0445611,20.7142857 C23.5106508,20.9047629 22.9107495,21 22.2448393,21 C21.578929,21 20.9790277,20.9047629 20.4451174,20.7142857 C19.9112071,20.5238086 19.4561096,20.2638905 19.0798111,19.9345238 C18.7035127,19.6051571 18.4139052,19.2202403 18.2109799,18.7797619 C18.0080546,18.3392835 17.9065934,17.867066 17.9065934,17.3630952 Z M19.744733,17.3630952 C19.744733,17.6448427 19.8008814,17.9117051 19.9131799,18.1636905 C20.0254784,18.4156759 20.1889983,18.6378959 20.4037445,18.8303571 C20.6184907,19.0228184 20.8805165,19.1755947 21.1898299,19.2886905 C21.4991432,19.4017863 21.8508095,19.4583333 22.2448393,19.4583333 C22.638869,19.4583333 22.9905353,19.4017863 23.2998486,19.2886905 C23.609162,19.1755947 23.8711878,19.0228184 24.085934,18.8303571 C24.3006803,18.6378959 24.4642001,18.4156759 24.5764986,18.1636905 C24.6887971,17.9117051 24.7449455,17.6448427 24.7449455,17.3630952 C24.7449455,17.0813478 24.6887971,16.8134933 24.5764986,16.5595238 C24.4642001,16.3055543 24.3006803,16.0823422 24.085934,15.889881 C23.8711878,15.6974197 23.609162,15.5446434 23.2998486,15.4315476 C22.9905353,15.3184518 22.638869,15.2619048 22.2448393,15.2619048 C21.8508095,15.2619048 21.4991432,15.3184518 21.1898299,15.4315476 C20.8805165,15.5446434 20.6184907,15.6974197 20.4037445,15.889881 C20.1889983,16.0823422 20.0254784,16.3055543 19.9131799,16.5595238 C19.8008814,16.8134933 19.744733,17.0813478 19.744733,17.3630952 Z M28.3638678,13.8511905 L30.1133512,13.8511905 L30.1133512,14.8630952 C30.4995003,14.5734112 30.907315,14.3234137 31.3368074,14.1130952 C31.7662998,13.9027767 32.1938157,13.742064 32.6193678,13.6309524 L33.1335741,15.2440476 C32.4597832,15.3115083 31.8677624,15.4632925 31.3574939,15.6994048 C30.8472253,15.9355171 30.4325152,16.267855 30.1133512,16.6964286 L30.1133512,20.875 L28.3638678,20.875 L28.3638678,13.8511905 Z M35.4994881,15.172619 L33.8150193,15.172619 L33.8150193,13.8511905 L35.4994881,13.8511905 L35.4994881,11.6666667 L37.2489714,11.6666667 L37.2489714,13.8511905 L38.9334401,13.8511905 L38.9334401,15.172619 L37.2489714,15.172619 L37.2489714,20.875 L35.4994881,20.875 L35.4994881,15.172619 Z M40.3064041,15.6011905 L46.5714458,15.6011905 L46.5714458,16.922619 L40.3064041,16.922619 L40.3064041,15.6011905 Z M48.7955098,11.5714286 L57.0582722,11.5714286 L57.0582722,13.2261905 L50.6691118,13.2261905 L50.6691118,15.6607143 L56.0948743,15.6607143 L56.0948743,17.2142857 L50.6691118,17.2142857 L50.6691118,20.875 L48.7955098,20.875 L48.7955098,11.5714286 Z M58.2421029,17.3630952 C58.2421029,16.8591245 58.343564,16.386907 58.5464894,15.9464286 C58.7494147,15.5059502 59.0390222,15.1210334 59.4153206,14.7916667 C59.791619,14.4622999 60.2467165,14.2023819 60.7806269,14.0119048 C61.3145372,13.8214276 61.9144384,13.7261905 62.5803487,13.7261905 C63.246259,13.7261905 63.8461603,13.8214276 64.3800706,14.0119048 C64.9139809,14.2023819 65.3690784,14.4622999 65.7453768,14.7916667 C66.1216752,15.1210334 66.4112828,15.5059502 66.6142081,15.9464286 C66.8171334,16.386907 66.9185945,16.8591245 66.9185945,17.3630952 C66.9185945,17.867066 66.8171334,18.3392835 66.6142081,18.7797619 C66.4112828,19.2202403 66.1216752,19.6051571 65.7453768,19.9345238 C65.3690784,20.2638905 64.9139809,20.5238086 64.3800706,20.7142857 C63.8461603,20.9047629 63.246259,21 62.5803487,21 C61.9144384,21 61.3145372,20.9047629 60.7806269,20.7142857 C60.2467165,20.5238086 59.791619,20.2638905 59.4153206,19.9345238 C59.0390222,19.6051571 58.7494147,19.2202403 58.5464894,18.7797619 C58.343564,18.3392835 58.2421029,17.867066 58.2421029,17.3630952 Z M60.0802425,17.3630952 C60.0802425,17.6448427 60.1363909,17.9117051 60.2486894,18.1636905 C60.3609878,18.4156759 60.5245077,18.6378959 60.7392539,18.8303571 C60.9540001,19.0228184 61.216026,19.1755947 61.5253393,19.2886905 C61.8346527,19.4017863 62.186319,19.4583333 62.5803487,19.4583333 C62.9743785,19.4583333 63.3260447,19.4017863 63.6353581,19.2886905 C63.9446714,19.1755947 64.2066973,19.0228184 64.4214435,18.8303571 C64.6361897,18.6378959 64.7997096,18.4156759 64.9120081,18.1636905 C65.0243066,17.9117051 65.080455,17.6448427 65.080455,17.3630952 C65.080455,17.0813478 65.0243066,16.8134933 64.9120081,16.5595238 C64.7997096,16.3055543 64.6361897,16.0823422 64.4214435,15.889881 C64.2066973,15.6974197 63.9446714,15.5446434 63.6353581,15.4315476 C63.3260447,15.3184518 62.9743785,15.2619048 62.5803487,15.2619048 C62.186319,15.2619048 61.8346527,15.3184518 61.5253393,15.4315476 C61.216026,15.5446434 60.9540001,15.6974197 60.7392539,15.889881 C60.5245077,16.0823422 60.3609878,16.3055543 60.2486894,16.5595238 C60.1363909,16.8134933 60.0802425,17.0813478 60.0802425,17.3630952 Z M68.7466606,11 L70.4961439,11 L70.4961439,20.875 L68.7466606,20.875 L68.7466606,11 Z M73.671785,12.8928571 C73.4984119,12.8928571 73.3417875,12.8680558 73.2019069,12.8184524 C73.0620263,12.768849 72.9428341,12.7013893 72.8443267,12.6160714 C72.7458193,12.5307535 72.6699697,12.4315482 72.6167757,12.3184524 C72.5635816,12.2053566 72.536985,12.0853181 72.536985,11.9583333 C72.536985,11.8273803 72.5635816,11.7053577 72.6167757,11.5922619 C72.6699697,11.4791661 72.7458193,11.3809528 72.8443267,11.297619 C72.9428341,11.2142853 73.0620263,11.1478177 73.2019069,11.0982143 C73.3417875,11.0486109 73.4984119,11.0238095 73.671785,11.0238095 C73.8490984,11.0238095 74.007693,11.0486109 74.1475736,11.0982143 C74.2874541,11.1478177 74.4066463,11.2142853 74.5051538,11.297619 C74.6036612,11.3809528 74.6795108,11.4791661 74.7327048,11.5922619 C74.7858988,11.7053577 74.8124954,11.8273803 74.8124954,11.9583333 C74.8124954,12.0853181 74.7858988,12.2053566 74.7327048,12.3184524 C74.6795108,12.4315482 74.6036612,12.5307535 74.5051538,12.6160714 C74.4066463,12.7013893 74.2874541,12.768849 74.1475736,12.8184524 C74.007693,12.8680558 73.8490984,12.8928571 73.671785,12.8928571 Z M80.718749,13.7261905 C81.3846593,13.7261905 81.9845606,13.8214276 82.5184709,14.0119048 C83.0523812,14.2023819 83.5074787,14.4622999 83.8837771,14.7916667 C84.2600755,15.1210334 84.549683,15.5059502 84.7526084,15.9464286 C84.9555337,16.386907 85.0569948,16.8591245 85.0569948,17.3630952 C85.0569948,17.867066 84.9555337,18.3392835 84.7526084,18.7797619 C84.549683,19.2202403 84.2600755,19.6051571 83.8837771,19.9345238 C83.5074787,20.2638905 83.0523812,20.5238086 82.5184709,20.7142857 C81.9845606,20.9047629 81.3846593,21 80.718749,21 C80.0528387,21 79.4529374,20.9047629 78.9190271,20.7142857 C78.3851168,20.5238086 77.9300193,20.2638905 77.5537209,19.9345238 C77.1774225,19.6051571 76.887815,19.2202403 76.6848896,18.7797619 C76.4819643,18.3392835 76.3805032,17.867066 76.3805032,17.3630952 C76.3805032,16.8591245 76.4819643,16.386907 76.6848896,15.9464286 C76.887815,15.5059502 77.1774225,15.1210334 77.5537209,14.7916667 C77.9300193,14.4622999 78.3851168,14.2023819 78.9190271,14.0119048 C79.4529374,13.8214276 80.0528387,13.7261905 80.718749,13.7261905 Z M74.5465267,13.8511905 L74.5465267,20.875 L72.7970434,20.875 L72.7970434,13.8511905 L74.5465267,13.8511905 Z M80.718749,15.2619048 C80.3247193,15.2619048 79.973053,15.3184518 79.6637396,15.4315476 C79.3544263,15.5446434 79.0924004,15.6974197 78.8776542,15.889881 C78.662908,16.0823422 78.4993881,16.3055543 78.3870896,16.5595238 C78.2747912,16.8134933 78.2186428,17.0813478 78.2186428,17.3630952 C78.2186428,17.6448427 78.2747912,17.9117051 78.3870896,18.1636905 C78.4993881,18.4156759 78.662908,18.6378959 78.8776542,18.8303571 C79.0924004,19.0228184 79.3544263,19.1755947 79.6637396,19.2886905 C79.973053,19.4017863 80.3247193,19.4583333 80.718749,19.4583333 C81.1127788,19.4583333 81.464445,19.4017863 81.7737584,19.2886905 C82.0830717,19.1755947 82.3450976,19.0228184 82.5598438,18.8303571 C82.77459,18.6378959 82.9381099,18.4156759 83.0504084,18.1636905 C83.1627068,17.9117051 83.2188552,17.6448427 83.2188552,17.3630952 C83.2188552,17.0813478 83.1627068,16.8134933 83.0504084,16.5595238 C82.9381099,16.3055543 82.77459,16.0823422 82.5598438,15.889881 C82.3450976,15.6974197 82.0830717,15.5446434 81.7737584,15.4315476 C81.464445,15.3184518 81.1127788,15.2619048 80.718749,15.2619048 Z" id="Port–Folio" fill="#FFFFFF"></path>
            </g>
        </g>
    </g>
</svg>