<?xml version="1.0" encoding="UTF-8"?>
<svg width="45px" height="28px" viewBox="0 0 45 28" version="1.1" xmlns="http://www.w3.org/2000/svg" xmlns:xlink="http://www.w3.org/1999/xlink">
    <!-- Generator: Sketch 64 (93537) - https://sketch.com -->
    <title>Group</title>
    <desc>Created with Sketch.</desc>
    <g id="5_Pages/Contents" stroke="none" stroke-width="1" fill="none" fill-rule="evenodd">
        <g id="Contents-Show/Portfolio-&gt;1024-Copy" transform="translate(-1351.000000, -842.000000)" fill="#212121" fill-rule="nonzero">
            <g id="Group" transform="translate(1351.000000, 842.000000)">
                <path d="M45,1.97175609e-13 L45,23.3035714 L40.5803571,23.3035714 L40.5803571,27.7232143 L0,27.7232143 L0,4.41964286 L4.41964286,4.41964286 L4.41964286,1.97175609e-13 L45,1.97175609e-13 Z M42.9910714,2.00892857 L6.42857143,2.00892857 L6.42857143,6.42857143 L2.00892857,6.42857143 L2.00892857,25.7142857 L38.5714286,25.7142857 L38.5714286,21.2946429 L42.9910714,21.2946429 L42.9910714,2.00892857 Z" id="Combined-Shape"></path>
                <path d="M40.5803571,4.41964286 L40.5803571,27.7232143 L7.9225515e-13,27.7232143 L7.9225515e-13,4.41964286 L40.5803571,4.41964286 Z M38.5714286,6.42857143 L2.00892857,6.42857143 L2.00892857,25.7142857 L38.5714286,25.7142857 L38.5714286,6.42857143 Z" id="Rectangle-Copy-71"></path>
                <path d="M7.13248118,11.2919835 L11.9821603,11.2919835 C12.6884278,11.2919835 13.3005171,11.3684946 13.8184466,11.5215193 C14.336376,11.6745439 14.7660157,11.8952492 15.1073783,12.1836417 C15.4487409,12.4720343 15.7027972,12.8241818 15.8695548,13.2400949 C16.0363124,13.6560079 16.1196899,14.124884 16.1196899,14.6467372 C16.1196899,15.1372008 16.0372933,15.5903823 15.8724976,16.0062953 C15.7077018,16.4222084 15.4556073,16.7822033 15.1162066,17.0862906 C14.7768058,17.390378 14.3481471,17.6277588 13.8302176,17.7984401 C13.3122881,17.9691214 12.7001988,18.0544608 11.9939314,18.0544608 L8.9981951,18.0485753 L8.9981951,20.4910714 L7.13248118,20.4910714 L7.13248118,11.2919835 Z M12.0292446,16.4359392 C12.3823783,16.4359392 12.6913657,16.39376 12.956216,16.3094003 C13.2210663,16.2250406 13.4427525,16.1053693 13.6212812,15.9503828 C13.7998099,15.7953963 13.933214,15.6070611 14.0214974,15.3853716 C14.1097809,15.1636821 14.1539219,14.9174731 14.1539219,14.6467372 C14.1539219,14.1013418 13.9763768,13.6766067 13.6212812,13.3725194 C13.2661856,13.068432 12.735512,12.9163906 12.0292446,12.9163906 L8.9981951,12.9163906 L8.9981951,16.4359392 L12.0292446,16.4359392 Z M17.7576081,15.2764893 L23.9962729,15.2764893 L23.9962729,16.5830776 L17.7576081,16.5830776 L17.7576081,15.2764893 Z M26.2109734,11.2919835 L34.4389484,11.2919835 L34.4389484,12.9281616 L28.0766873,12.9281616 L28.0766873,15.3353446 L33.4796065,15.3353446 L33.4796065,16.8714687 L28.0766873,16.8714687 L28.0766873,20.4910714 L26.2109734,20.4910714 L26.2109734,11.2919835 Z" id="P–F"></path>
            </g>
        </g>
    </g>
</svg>