<?xml version="1.0" encoding="UTF-8"?>
<svg width="45px" height="28px" viewBox="0 0 45 28" version="1.1" xmlns="http://www.w3.org/2000/svg" xmlns:xlink="http://www.w3.org/1999/xlink">
    <!-- Generator: Sketch 60.1 (88133) - https://sketch.com -->
    <title>0_Quarks/Logo/Short</title>
    <desc>Created with Sketch.</desc>
    <g id="0_Quarks/Logo/Short" stroke="none" stroke-width="1" fill="none" fill-rule="evenodd">
        <g id="Лого" fill="#FFFFFF" fill-rule="nonzero">
            <path d="M45,0 L45,23.3035714 L40.5803571,23.3035714 L40.5803571,27.7232143 L0,27.7232143 L0,4.41964286 L4.41964286,4.41964286 L4.41964286,0 L45,0 Z M42.9910714,2.00892857 L6.42857143,2.00892857 L6.42857143,6.42857143 L2.00892857,6.42857143 L2.00892857,25.7142857 L38.5714286,25.7142857 L38.5714286,21.2946429 L42.9910714,21.2946429 L42.9910714,2.00892857 Z" id="Combined-Shape"></path>
            <g id="Group" transform="translate(0.000000, 4.419643)">
                <path d="M40.5803571,6.39488462e-14 L40.5803571,23.3035714 L7.9225515e-13,23.3035714 L7.9225515e-13,6.39488462e-14 L40.5803571,6.39488462e-14 Z M38.5714286,2.00892857 L2.00892857,2.00892857 L2.00892857,21.2946429 L38.5714286,21.2946429 L38.5714286,2.00892857 Z" id="Rectangle-Copy-71"></path>
                <path d="M7.13248118,6.87234062 L11.9821603,6.87234062 C12.6884278,6.87234062 13.3005171,6.94885177 13.8184466,7.1018764 C14.336376,7.25490102 14.7660157,7.4756063 15.1073783,7.76399884 C15.4487409,8.05239141 15.7027972,8.40453893 15.8695548,8.82045201 C16.0363124,9.23636509 16.1196899,9.70524119 16.1196899,10.2270944 C16.1196899,10.7175579 16.0372933,11.1707394 15.8724976,11.5866525 C15.7077018,12.0025656 15.4556073,12.3625604 15.1162066,12.6666478 C14.7768058,12.9707352 14.3481471,13.208116 13.8302176,13.3787973 C13.3122881,13.5494786 12.7001988,13.634818 11.9939314,13.634818 L8.9981951,13.6289324 L8.9981951,16.0714286 L7.13248118,16.0714286 L7.13248118,6.87234062 Z M12.0292446,12.0162964 C12.3823783,12.0162964 12.6913657,11.9741172 12.956216,11.8897574 C13.2210663,11.8053977 13.4427525,11.6857264 13.6212812,11.5307399 C13.7998099,11.3757534 13.933214,11.1874183 14.0214974,10.9657288 C14.1097809,10.7440392 14.1539219,10.4978302 14.1539219,10.2270944 C14.1539219,9.68169893 13.9763768,9.25696388 13.6212812,8.9528765 C13.2661856,8.6487891 12.735512,8.4967477 12.0292446,8.4967477 L8.9981951,8.4967477 L8.9981951,12.0162964 L12.0292446,12.0162964 Z M17.7576081,10.8568464 L23.9962729,10.8568464 L23.9962729,12.1634347 L17.7576081,12.1634347 L17.7576081,10.8568464 Z M26.2109734,6.87234062 L34.4389484,6.87234062 L34.4389484,8.50851876 L28.0766873,8.50851876 L28.0766873,10.9157017 L33.4796065,10.9157017 L33.4796065,12.4518258 L28.0766873,12.4518258 L28.0766873,16.0714286 L26.2109734,16.0714286 L26.2109734,6.87234062 Z" id="P–F"></path>
            </g>
        </g>
    </g>
</svg>