<?xml version="1.0" encoding="UTF-8"?>
<svg width="40px" height="40px" viewBox="0 0 40 40" version="1.1" xmlns="http://www.w3.org/2000/svg" xmlns:xlink="http://www.w3.org/1999/xlink">
    <!-- Generator: Sketch 64 (93537) - https://sketch.com -->
    <title>Artboard</title>
    <desc>Created with Sketch.</desc>
    <g id="Artboard" stroke="none" stroke-width="1" fill="none" fill-rule="evenodd">
        <g id="Group-27" transform="translate(9.000000, 12.000000)" fill="#4D4D4D" fill-rule="nonzero">
            <rect id="Rectangle" x="16" y="0" width="6" height="2"></rect>
            <rect id="Rectangle-Copy-6" transform="translate(1.000000, 3.000000) rotate(-90.000000) translate(-1.000000, -3.000000) " x="-2" y="2" width="6" height="2"></rect>
            <rect id="Rectangle-Copy-2" transform="translate(3.000000, 15.000000) rotate(-180.000000) translate(-3.000000, -15.000000) " x="0" y="14" width="6" height="2"></rect>
            <rect id="Rectangle-Copy-4" transform="translate(21.000000, 13.000000) rotate(-270.000000) translate(-21.000000, -13.000000) " x="18" y="12" width="6" height="2"></rect>
            <rect id="Rectangle-Copy" transform="translate(21.000000, 3.000000) rotate(-90.000000) translate(-21.000000, -3.000000) " x="18" y="2" width="6" height="2"></rect>
            <rect id="Rectangle-Copy-7" transform="translate(3.000000, 1.000000) rotate(-180.000000) translate(-3.000000, -1.000000) " x="0" y="9.09494702e-13" width="6" height="2"></rect>
            <rect id="Rectangle-Copy-3" transform="translate(1.000000, 13.000000) rotate(-270.000000) translate(-1.000000, -13.000000) " x="-2" y="12" width="6" height="2"></rect>
            <rect id="Rectangle-Copy-5" x="16" y="14" width="6" height="2"></rect>
        </g>
    </g>
</svg>