<?xml version="1.0" encoding="UTF-8"?>
<svg width="40px" height="40px" viewBox="0 0 40 40" version="1.1" xmlns="http://www.w3.org/2000/svg" xmlns:xlink="http://www.w3.org/1999/xlink">
    <!-- Generator: Sketch 64 (93537) - https://sketch.com -->
    <title>0_Quarks/Icons/Preview/Fullscreen</title>
    <desc>Created with Sketch.</desc>
    <g id="0_Quarks/Icons/Preview/Fullscreen" stroke="none" stroke-width="1" fill="none" fill-rule="evenodd">
        <rect id="Rectangle" fill="#FFFFFF" fill-rule="nonzero" x="25" y="12" width="6" height="2"></rect>
        <rect id="Rectangle-Copy-6" fill="#FFFFFF" fill-rule="nonzero" transform="translate(10.000000, 15.000000) rotate(-90.000000) translate(-10.000000, -15.000000) " x="7" y="14" width="6" height="2"></rect>
        <rect id="Rectangle-Copy-2" fill="#FFFFFF" fill-rule="nonzero" transform="translate(12.000000, 27.000000) rotate(-180.000000) translate(-12.000000, -27.000000) " x="9" y="26" width="6" height="2"></rect>
        <rect id="Rectangle-Copy-4" fill="#FFFFFF" fill-rule="nonzero" transform="translate(30.000000, 25.000000) rotate(-270.000000) translate(-30.000000, -25.000000) " x="27" y="24" width="6" height="2"></rect>
        <rect id="Rectangle-Copy" fill="#FFFFFF" fill-rule="nonzero" transform="translate(30.000000, 15.000000) rotate(-90.000000) translate(-30.000000, -15.000000) " x="27" y="14" width="6" height="2"></rect>
        <rect id="Rectangle-Copy-7" fill="#FFFFFF" fill-rule="nonzero" transform="translate(12.000000, 13.000000) rotate(-180.000000) translate(-12.000000, -13.000000) " x="9" y="12" width="6" height="2"></rect>
        <rect id="Rectangle-Copy-3" fill="#FFFFFF" fill-rule="nonzero" transform="translate(10.000000, 25.000000) rotate(-270.000000) translate(-10.000000, -25.000000) " x="7" y="24" width="6" height="2"></rect>
        <rect id="Rectangle-Copy-5" fill="#FFFFFF" fill-rule="nonzero" x="25" y="26" width="6" height="2"></rect>
    </g>
</svg>